<svg width="80" height="80" viewBox="0 0 80 80" fill="none" xmlns="http://www.w3.org/2000/svg">
<path fill-rule="evenodd" clip-rule="evenodd" d="M40 0C17.92 0 0 17.92 0 40C0 62.08 17.92 80 40 80C62.08 80 80 62.08 80 40C80 17.92 62.08 0 40 0ZM40 12.0005C46.64 12.0005 52 17.3605 52 24.0005C52 30.6405 46.64 36.0005 40 36.0005C33.36 36.0005 28 30.6405 28 24.0005C28 17.3605 33.36 12.0005 40 12.0005ZM15.999 55.9196C21.159 63.6796 29.999 68.7996 39.999 68.7996C49.999 68.7996 58.839 63.6796 63.999 55.9196C63.879 47.9596 47.959 43.5996 39.999 43.5996C31.999 43.5996 16.119 47.9596 15.999 55.9196Z" fill="#D3D3D3"/>
</svg>
