<svg width="56" height="56" viewBox="0 0 56 56" fill="none" xmlns="http://www.w3.org/2000/svg">
<path d="M32 8.00015H16C14.9391 8.00015 13.9217 8.42158 13.1716 9.17173C12.4214 9.92187 12 10.9393 12 12.0002V44.0002C12 45.061 12.4214 46.0784 13.1716 46.8286C13.9217 47.5787 14.9391 48.0002 16 48.0002H40C41.0609 48.0002 42.0783 47.5787 42.8284 46.8286C43.5786 46.0784 44 45.061 44 44.0002V20.0002M32 8.00015L44 20.0002M32 8.00015V20.0002H44" stroke="#BC1E2C" stroke-linecap="round" stroke-linejoin="round"/>
<path d="M28.0007 20.4167V33.8333M28.0007 33.8333L23.334 29.1667M28.0007 33.8333L32.6673 29.1667" stroke="#BC1E2C"/>
<path d="M19.834 36.1667H36.1673" stroke="#BC1E2C"/>
</svg>
