<svg width="24" height="24" viewBox="0 0 24 24" fill="none" xmlns="http://www.w3.org/2000/svg">
<path fill-rule="evenodd" clip-rule="evenodd" d="M4.22222 2C2.99492 2 2 3.00078 2 4.23529V18.7647C2 19.9992 2.99492 21 4.22222 21H19.7778C21.0051 21 22 19.9992 22 18.7647V6.47059C22 5.23607 21.0051 4.23529 19.7778 4.23529H9.77778C9.77778 3.00078 8.78286 2 7.55556 2H4.22222ZM3.11111 5.35294V18.7647C3.11111 19.382 3.60857 19.8824 4.22222 19.8824H19.7778C20.3914 19.8824 20.8889 19.382 20.8889 18.7647V6.47059C20.8889 5.85333 20.3914 5.35294 19.7778 5.35294H3.11111Z" fill="#302B2B"/>
</svg>
