<svg width="24" height="25" viewBox="0 0 24 25" fill="none" xmlns="http://www.w3.org/2000/svg">
<path d="M5 21.1147H19C20.1046 21.1147 21 20.2193 21 19.1147V5.11475C21 4.01018 20.1046 3.11475 19 3.11475H5C3.89543 3.11475 3 4.01018 3 5.11475V19.1147C3 20.2193 3.89543 21.1147 5 21.1147ZM5 21.1147L16 10.1147L21 15.1147M10 8.61475C10 9.44317 9.32843 10.1147 8.5 10.1147C7.67157 10.1147 7 9.44317 7 8.61475C7 7.78632 7.67157 7.11475 8.5 7.11475C9.32843 7.11475 10 7.78632 10 8.61475Z" stroke="#002D6E" stroke-linecap="round" stroke-linejoin="round"/>
</svg>
