<svg width="24" height="24" viewBox="0 0 24 24" fill="none" xmlns="http://www.w3.org/2000/svg">
<path fill-rule="evenodd" clip-rule="evenodd" d="M2 7V17C2 18.1046 2.89543 19 4 19H20C21.1046 19 22 18.1046 22 17V7C22 5.89543 21.1046 5 20 5H4C2.89543 5 2 5.89543 2 7ZM21 7.0169V7C21 6.44772 20.5523 6 20 6H4C3.44772 6 3 6.44772 3 7V7.0169L11.2283 11.9539C11.7033 12.2389 12.2967 12.2389 12.7717 11.9539L21 7.0169ZM3 8.1831V17C3 17.5523 3.44772 18 4 18H20C20.5523 18 21 17.5523 21 17V8.1831L13.2862 12.8114C12.4945 13.2864 11.5055 13.2864 10.7138 12.8114L3 8.1831Z" fill="white"/>
</svg>
