<svg width="16" height="17" viewBox="0 0 16 17" fill="none" xmlns="http://www.w3.org/2000/svg">
<path d="M7.9999 8.94294C8.31549 8.94294 8.57132 8.6871 8.57132 8.37151C8.57132 8.05592 8.31549 7.80008 7.9999 7.80008C7.6843 7.80008 7.42847 8.05592 7.42847 8.37151C7.42847 8.6871 7.6843 8.94294 7.9999 8.94294Z" stroke="#1A1A1A" stroke-linecap="round" stroke-linejoin="round"/>
<path d="M11.9999 8.94294C12.3155 8.94294 12.5713 8.6871 12.5713 8.37151C12.5713 8.05592 12.3155 7.80008 11.9999 7.80008C11.6843 7.80008 11.4285 8.05592 11.4285 8.37151C11.4285 8.6871 11.6843 8.94294 11.9999 8.94294Z" stroke="#1A1A1A" stroke-linecap="round" stroke-linejoin="round"/>
<path d="M3.9999 8.94294C4.31549 8.94294 4.57132 8.6871 4.57132 8.37151C4.57132 8.05592 4.31549 7.80008 3.9999 7.80008C3.6843 7.80008 3.42847 8.05592 3.42847 8.37151C3.42847 8.6871 3.6843 8.94294 3.9999 8.94294Z" stroke="#1A1A1A" stroke-linecap="round" stroke-linejoin="round"/>
</svg>
