<svg width="24" height="24" viewBox="0 0 24 24" fill="none" xmlns="http://www.w3.org/2000/svg">
<path d="M9.99603 6.4334L6.94387 2.62896C6.64938 2.26189 6.13575 2.14426 5.73204 2.38609C5.05555 2.79132 4.19756 3.42046 3.77172 4.2167C0.215253 10.8668 8.9056 18.7502 13.5005 20.16C17.5439 21.4007 19.842 19.3414 20.7516 17.7178C20.9641 17.3385 20.8255 16.8759 20.4819 16.6094L17.0572 13.9533L15.5614 15.4719C14.6343 16.4132 13.1965 16.6426 12.0835 15.9307C11.2107 15.3725 10.2154 14.6662 9.50049 13.9533C8.72465 13.1796 8.10574 12.0851 7.67781 11.1748C7.20466 10.1683 7.48673 9.00222 8.26388 8.20664L9.99603 6.4334Z" stroke="white" stroke-linejoin="round"/>
</svg>
