<svg width="24" height="24" viewBox="0 0 24 24" fill="none" xmlns="http://www.w3.org/2000/svg">
<path d="M6.85704 9.42859V3.42859H17.1428V9.42859M6.85704 17.1429H5.14275C4.6881 17.1429 4.25206 16.9623 3.93057 16.6408C3.60908 16.3193 3.42847 15.8832 3.42847 15.4286V11.1429C3.42847 10.6882 3.60908 10.2522 3.93057 9.93069C4.25206 9.6092 4.6881 9.42859 5.14275 9.42859H18.857C19.3117 9.42859 19.7477 9.6092 20.0692 9.93069C20.3907 10.2522 20.5713 10.6882 20.5713 11.1429V15.4286C20.5713 15.8832 20.3907 16.3193 20.0692 16.6408C19.7477 16.9623 19.3117 17.1429 18.857 17.1429H17.1428M6.85704 13.7143H17.1428V20.5714H6.85704V13.7143Z" stroke="white" stroke-linecap="round" stroke-linejoin="round"/>
</svg>
