<svg width="20" height="20" viewBox="0 0 20 20" fill="none" xmlns="http://www.w3.org/2000/svg">
<path fill-rule="evenodd" clip-rule="evenodd" d="M2.57219 9.51817C6.59871 7.76388 9.28369 6.60735 10.6271 6.04857C14.4629 4.45314 15.2599 4.176 15.7795 4.16685C15.8937 4.16483 16.1492 4.19315 16.3147 4.32743C16.4544 4.44081 16.4929 4.59398 16.5113 4.70148C16.5296 4.80898 16.5526 5.05387 16.5343 5.24522C16.3265 7.42924 15.4271 12.7293 14.9695 15.1754C14.7759 16.2105 14.3946 16.5575 14.0256 16.5915C13.2235 16.6653 12.6144 16.0614 11.8375 15.5522C10.6219 14.7553 9.9351 14.2592 8.75511 13.4816C7.39141 12.583 8.27544 12.0891 9.0526 11.2819C9.25599 11.0706 12.79 7.85614 12.8585 7.56454C12.867 7.52807 12.8749 7.39212 12.7942 7.32034C12.7134 7.24856 12.5942 7.27311 12.5082 7.29263C12.3863 7.3203 10.4443 8.6039 6.68216 11.1434C6.13093 11.5219 5.63164 11.7064 5.18429 11.6967C4.69112 11.686 3.74247 11.4179 3.03725 11.1886C2.17226 10.9074 1.48479 10.7588 1.54465 10.2813C1.57583 10.0325 1.91834 9.77818 2.57219 9.51817Z" fill="white"/>
</svg>
