<svg width="16" height="12" viewBox="0 0 16 12" fill="none" xmlns="http://www.w3.org/2000/svg">
<path d="M15.4185 2.51852C15.2294 1.71489 14.5769 1.11926 13.7825 1.03417C11.9007 0.82617 10.0095 0.826172 8.11823 0.826172C6.22698 0.826172 4.32627 0.82617 2.45393 1.03417C1.6596 1.11926 1.00713 1.71489 0.818003 2.51852C0.553227 3.6625 0.553223 4.91994 0.553223 6.0923C0.553223 7.2741 0.553227 8.52209 0.818003 9.66607C1.00713 10.4697 1.6596 11.0653 2.45393 11.1504C4.32627 11.3584 6.22698 11.3584 8.11823 11.3584C10.0095 11.3584 11.9102 11.3584 13.7825 11.1504C14.5769 11.0653 15.2294 10.4697 15.4185 9.66607C15.6833 8.52209 15.6832 7.26465 15.6832 6.0923C15.6832 4.91994 15.6833 3.67196 15.4185 2.51852ZM6.52012 8.16282V3.96505L10.5201 6.06393L6.52012 8.16282Z" fill="white"/>
</svg>
