<svg width="96" height="32" viewBox="0 0 96 32" fill="none" xmlns="http://www.w3.org/2000/svg">
<path d="M70.9817 16.1548C69.8039 15.7529 68.54 15.6668 67.276 15.5807C65.811 15.4946 64.3173 15.4085 62.9097 14.8918C62.3926 14.7196 61.9043 14.4612 61.5309 14.0593C60.784 13.2269 60.9851 12.1074 61.6745 11.3324C62.0192 10.9592 62.249 10.4999 62.7373 10.2129C63.8289 9.58135 64.978 9.58135 66.1557 9.83969C66.6441 9.92581 67.1611 10.0119 67.6495 10.1267C68.4825 10.3564 69.2869 10.586 70.1199 10.8157C71.4988 11.1888 72.8776 11.562 74.2277 11.9926C74.831 12.1935 75.348 12.1935 75.9225 11.9926C76.5258 11.7629 76.8131 11.3611 76.7269 10.7008C76.612 9.81099 76.4396 8.92113 76.296 8.00257C76.2098 7.45718 76.1811 6.94048 76.0949 6.39509C75.9513 5.47653 75.6927 4.58667 75.348 3.69681C75.0033 2.83566 75.2044 1.65875 76.2098 1.14206C76.8705 0.797602 77.5312 0.367026 78.2494 0.137386C79.542 -0.321895 81.5528 0.424436 82.2135 1.57264C83.0753 3.0653 82.8742 4.58667 82.0412 5.99322C81.1219 7.572 80.806 9.43782 81.1507 11.2462C81.1794 11.3611 81.323 11.562 81.4092 11.562C81.8114 11.6194 82.271 11.7055 82.6157 11.5907C83.5349 11.2462 84.4829 10.9018 85.3159 10.3564C86.2639 9.72487 87.1831 9.03595 87.8151 8.00257C88.1024 7.54329 88.5045 7.08401 88.9641 6.79696C89.5961 6.39509 90.3143 6.13674 91.1186 6.30897C91.2335 6.33768 91.3771 6.36638 91.4346 6.42379C92.0378 6.94048 92.6985 7.42847 92.957 8.23221C93.1868 8.92113 92.9858 9.52394 92.5836 10.098C92.1527 10.6721 91.7218 11.2175 91.0037 11.4472C90.8026 11.5046 90.659 11.7055 90.4866 11.849C90.1132 12.1648 89.7685 12.538 89.395 12.8537C88.6481 13.4565 87.9874 14.1167 87.4704 14.8918C87.3842 15.0353 87.2693 15.1501 87.1544 15.2649C86.4362 15.8391 86.2064 16.6428 86.4075 17.5614C86.5799 18.279 87.0108 18.9105 87.4704 19.4559C88.3322 20.4606 89.3663 21.293 90.5153 21.9245C91.4633 22.4412 92.5836 22.6996 93.5603 23.2163C94.7093 23.8191 95.2838 24.7663 95.8871 25.8858C96.1169 26.3164 95.9733 26.8618 95.6573 27.2924C95.2551 27.8665 94.7093 28.2683 94.1348 28.6415C93.7901 28.8711 93.4741 29.1582 93.1007 29.3591C92.2963 29.761 91.5207 29.8471 90.6302 29.5314C90.1132 29.3304 89.6248 29.1295 89.2227 28.8137C89.0503 28.6989 88.9067 28.5267 88.8205 28.3258C88.562 27.8091 88.2747 27.3498 87.7864 27.0053C87.5853 26.8618 87.4991 26.5747 87.298 26.4025C86.8959 26.0006 86.4937 25.6275 86.0915 25.2256C85.6894 24.8237 85.2872 24.4219 84.885 24.0487C84.7127 23.9052 84.5403 23.7617 84.368 23.6468C83.9658 23.4172 83.5924 23.1588 83.1615 23.0153C82.2997 22.6709 81.007 22.757 80.4038 23.532C80.0878 23.9626 79.8867 24.4793 79.5707 24.9098C78.9962 25.7136 78.077 26.1442 77.3014 26.7183C76.4683 27.3785 75.8651 28.4119 75.2044 29.2443C74.9171 29.6175 74.6586 29.9906 74.1703 30.1629C73.9405 30.2203 73.7394 30.3925 73.5383 30.536C73.1936 30.8518 72.8201 30.8805 72.3893 30.8805C71.8435 30.8805 71.2402 30.9666 70.8381 30.536C70.4072 30.1055 69.8039 29.761 69.8327 29.0147C69.8327 28.9573 69.8039 28.8711 69.7752 28.8137C69.2869 28.0387 69.5741 27.3211 70.005 26.6322C70.2348 26.2877 70.5221 25.9719 70.8093 25.6562C71.4126 24.996 72.0733 24.3932 72.6478 23.7042C74.7735 21.1495 74.8884 17.791 71.5562 16.3557C71.3839 16.2983 71.1828 16.2122 70.9817 16.1548Z" fill="white"/>
<path d="M34.8732 12.4519C33.9827 12.3945 32.9773 12.3945 32.058 12.4519V12.1074L32.3166 12.0787C32.7187 12.0213 32.7475 11.9926 32.7475 10.6722V10.5C30.909 10.4425 29.7025 9.49528 29.7025 7.88779C29.7025 6.28031 31.0526 5.33304 32.7475 5.24693C32.7475 3.69686 32.7187 3.61074 32.2591 3.55333L32.0293 3.52463V3.18017C32.9773 3.18017 33.5231 3.15146 34.155 3.00793L34.2412 3.09405C34.2125 3.63945 34.2125 4.58671 34.2125 5.0747V5.27563C36.0509 5.33304 37.2574 6.25161 37.2574 7.88779C37.2574 9.52398 35.9073 10.4425 34.2125 10.5287V10.7009C34.2125 11.9926 34.2412 11.9926 34.7008 12.1074L34.9019 12.1361V12.4519H34.8732ZM32.7475 10.0981V5.67751C31.7995 5.79233 31.225 6.48125 31.225 7.77297C31.225 9.0647 31.7995 9.98326 32.7475 10.0981ZM34.2125 5.67751V10.1268C35.1604 10.0407 35.7637 9.35175 35.7637 8.06002C35.735 6.71089 35.1604 5.79233 34.2125 5.67751Z" fill="white"/>
<path d="M38.2339 7.88769C38.2339 6.28021 39.5266 5.24683 41.0203 5.24683C42.4853 5.24683 43.6056 6.19409 43.6056 7.85899C43.6056 9.46647 42.313 10.4711 40.8192 10.4711C39.3542 10.4999 38.2339 9.58129 38.2339 7.88769ZM42.0544 8.37568C42.0544 7.02654 41.4225 5.73481 40.6469 5.73481C40.1011 5.73481 39.7851 6.33762 39.7851 7.42841C39.7851 8.80625 40.4171 10.0693 41.1927 10.0693C41.7384 10.0693 42.0544 9.46647 42.0544 8.37568Z" fill="white"/>
<path d="M50.8446 10.385C50.0115 10.3276 48.8912 10.3276 48.0582 10.385V10.0406L48.3167 9.98317C48.6327 9.92576 48.6901 9.89706 48.6901 8.57662V7.97382H46.708V8.57662C46.708 9.89706 46.7368 9.89706 47.0815 9.98317L47.34 10.0406V10.385C46.507 10.3276 45.3866 10.3276 44.5536 10.385V10.0406L44.8121 9.98317C45.1856 9.92576 45.243 9.89706 45.243 8.57662V7.19878C45.243 5.90705 45.1856 5.87835 44.8121 5.79223L44.5536 5.76353V5.41907C45.3866 5.47648 46.507 5.47648 47.34 5.41907V5.76353L47.0815 5.79223C46.7655 5.84964 46.708 5.87835 46.708 7.19878V7.51454H48.6901V7.19878C48.6901 5.87835 48.6614 5.87835 48.3167 5.79223L48.0582 5.76353V5.41907C48.8912 5.47648 50.0115 5.47648 50.8446 5.41907V5.76353L50.586 5.79223C50.2126 5.84964 50.1552 5.87835 50.1552 7.19878V8.57662C50.1552 9.89706 50.2126 9.89706 50.586 9.98317L50.8446 10.0406V10.385Z" fill="white"/>
<path d="M56.9634 12.1074L56.8772 11.849C56.5038 10.7582 56.2165 10.3564 55.4122 10.3564H53.2578C52.4822 10.3564 52.2524 10.7869 51.8789 11.849L51.7928 12.1074L51.5055 12.0787C51.5629 11.3323 51.5629 10.6721 51.5629 9.92578H52.2524C52.712 8.8924 52.8843 7.91643 52.9705 6.91175C53.028 6.13671 52.8269 5.90707 52.5684 5.84966L52.2811 5.76355V5.39038C54.0334 5.41909 55.326 5.41909 57.0496 5.39038V5.76355L56.8198 5.79225C56.4464 5.84966 56.3889 5.96448 56.3889 7.17009V9.89708H57.222C57.1932 10.6434 57.222 11.3036 57.2794 12.05L56.9634 12.1074ZM52.8269 9.92578H54.8952V5.87837H53.5163L53.4589 6.88304C53.3727 8.00254 53.2003 8.94981 52.8269 9.92578Z" fill="white"/>
<path d="M17.81 20.4319C17.0057 20.3745 15.7992 20.3745 14.9948 20.4319V20.0875L15.2821 20.03C15.5981 19.9726 15.6268 19.8865 15.6268 18.6235V16.2697L14.0182 19.7717C13.7883 19.7717 13.5298 19.7717 13.3 19.7717L11.5764 16.3271L11.6052 18.5948C11.6052 19.743 11.7201 19.9439 12.1222 20.03L12.3233 20.0588V20.4032C11.7775 20.3458 11.0307 20.3458 10.4849 20.4032V20.0588L10.7434 20.0013C11.0594 19.9439 11.1743 19.743 11.1743 18.5661V16.8725C11.1743 16.3845 11.1456 16.04 10.7147 15.8678L10.4849 15.8104V15.4659C11.1743 15.5234 12.1222 15.5234 12.7829 15.4659L14.2192 18.3364L15.5119 15.4659C16.2013 15.5234 17.0918 15.5234 17.7525 15.4659V15.8104L17.4653 15.8391C17.1206 15.8678 17.0631 15.9826 17.0631 17.2744V18.5948C17.0631 19.9152 17.1206 19.9439 17.4653 20.0013L17.7238 20.0588V20.4319H17.81Z" fill="white"/>
<path d="M25.0201 20.4318C24.187 20.3744 23.0667 20.3744 22.2336 20.4318V20.0874L22.4922 20.0299C22.8082 19.9725 22.8656 19.9438 22.8656 18.6234V16.9872L20.8548 19.4558C20.8835 19.9438 20.9697 19.9725 21.1995 20.0012L21.458 20.0586V20.4031C20.625 20.3457 19.5047 20.3457 18.6716 20.4031V20.0586L18.9302 20.0012C19.3036 19.9438 19.3611 19.9151 19.3611 18.5947V17.2168C19.3611 15.9251 19.3036 15.8964 18.9302 15.8103L18.6716 15.7816V15.4371C19.5047 15.4945 20.625 15.4945 21.458 15.4371V15.7816L21.1995 15.8103C20.8835 15.8677 20.8261 15.8964 20.8261 17.2168V18.8243L22.8369 16.327C22.8082 15.8677 22.722 15.839 22.4922 15.8103L22.2336 15.7816V15.4371C23.0667 15.4945 24.187 15.4945 25.0201 15.4371V15.7816L24.7615 15.8103C24.3881 15.8677 24.3306 15.8964 24.3306 17.2168V18.5947C24.3306 19.9151 24.3881 19.9151 24.7615 20.0012L25.0201 20.0586V20.4318Z" fill="white"/>
<path d="M31.6559 20.4319C30.6505 20.3745 29.5302 20.4032 28.5822 20.4319V20.0875L28.8408 20.03C29.1855 19.9726 29.2429 19.8004 28.7833 19.1689L28.1513 18.3652L27.5768 19.0828C27.1747 19.5995 27.2034 19.9439 27.4332 20.0013L27.663 20.0588V20.4032C27.0885 20.3745 26.1692 20.3745 25.5947 20.4032V20.0588C26.1405 19.9152 26.4278 19.7717 27.0885 18.9967L27.8928 18.0494L26.9448 16.7864C26.3416 15.9539 26.2267 15.9252 25.7096 15.8104V15.4659C26.715 15.5234 27.663 15.4946 28.6971 15.4659V15.8104L28.5248 15.8391C28.1226 15.8965 28.1226 16.0975 28.5822 16.729L29.0706 17.3892L29.5589 16.7577C29.9898 16.2123 29.9611 15.9252 29.7025 15.8678L29.5302 15.8391V15.4946C30.1334 15.5521 30.9378 15.5521 31.541 15.4946V15.8391C31.0814 15.9826 30.593 16.241 29.9898 16.8725L29.2716 17.6762L30.3345 19.1115C30.9378 19.9439 31.0527 20.0588 31.6272 20.1162V20.4319H31.6559Z" fill="white"/>
<path d="M36.2807 20.5754C35.7924 20.5754 35.4477 20.317 35.4477 19.8004C35.1604 20.2883 34.7008 20.5754 34.0114 20.5754C33.0921 20.5754 32.4889 19.9726 32.4889 19.1688C32.4889 18.4512 33.006 17.9632 34.1263 17.8484L35.4189 17.7049V17.5327C35.4189 16.528 35.0455 15.8391 34.4997 15.8391C34.0114 15.8391 33.7816 16.3558 33.8677 17.3891L33.6954 17.4465C33.2358 17.4178 32.8336 17.303 32.8336 16.8724C32.8336 16.1261 34.0688 15.3511 35.1891 15.3511C36.3669 15.3511 36.9701 15.9826 36.9701 17.2169V19.3698C36.9701 19.7142 37.0276 19.8291 37.2287 19.8291C37.3723 19.8291 37.4872 19.7717 37.6308 19.6568L37.7457 19.8291C37.2861 20.3458 36.7691 20.5754 36.2807 20.5754ZM35.3902 19.5994V18.1068H34.9019C34.0688 18.1068 33.8677 18.4225 33.8677 18.8818C33.8677 19.4559 34.2699 19.8291 34.7295 19.8291C34.988 19.8291 35.2179 19.7429 35.3902 19.5994Z" fill="white"/>
<path d="M44.6402 20.4318C43.8071 20.3744 42.6868 20.3744 41.8538 20.4318V20.0874L42.1123 20.0299C42.4283 19.9725 42.4857 19.9438 42.4857 18.6234V16.9872L40.4749 19.4558C40.5036 19.9438 40.5898 19.9725 40.8196 20.0012L41.0782 20.0586V20.4031C40.2451 20.3457 39.1248 20.3457 38.2917 20.4031V20.0586L38.5503 20.0012C38.9237 19.9438 38.9812 19.9151 38.9812 18.5947V17.2168C38.9812 15.9251 38.9237 15.8964 38.5503 15.8103L38.2917 15.7816V15.4371C39.1248 15.4945 40.2451 15.4945 41.0782 15.4371V15.7816L40.8196 15.8103C40.5036 15.8677 40.4462 15.8964 40.4462 17.2168V18.8243L42.457 16.327C42.4283 15.8677 42.3421 15.839 42.1123 15.8103L41.8538 15.7816V15.4371C42.6868 15.4945 43.8071 15.4945 44.6402 15.4371V15.7816L44.3816 15.8103C44.0082 15.8677 43.9508 15.8964 43.9508 17.2168V18.5947C43.9508 19.9151 44.0082 19.9151 44.3816 20.0012L44.6402 20.0586V20.4318Z" fill="white"/>
<path d="M47.6275 17.0733C47.4551 19.5707 46.9093 20.5753 46.0475 20.5753C45.5017 20.5753 45.2432 20.0874 45.3294 19.4271L45.5017 19.3123C45.6741 19.3697 45.8752 19.3984 46.0188 19.3697C46.6795 19.341 47.0242 18.9392 47.1391 16.9011C47.1678 16.1261 46.9668 15.9251 46.6795 15.839L46.4497 15.7816V15.4371C47.8285 15.4945 49.7245 15.4945 51.0746 15.4371V15.7816L50.7873 15.839C50.4426 15.8964 50.3851 15.9251 50.3851 17.2743V18.5947C50.3851 19.8003 50.4139 19.9151 50.816 20.0012L51.0746 20.0586V20.4031C50.1841 20.3744 49.0925 20.3744 48.2307 20.4031V20.0586L48.4605 20.0012C48.8627 19.9151 48.8914 19.8003 48.8914 18.5947V15.8964H47.6849L47.6275 17.0733Z" fill="white"/>
<path d="M55.8431 20.5754C55.3548 20.5754 55.01 20.317 55.01 19.8004C54.7228 20.2883 54.2632 20.5754 53.5737 20.5754C52.6545 20.5754 52.0513 19.9726 52.0513 19.1688C52.0513 18.4512 52.5683 17.9632 53.6886 17.8484L54.9813 17.7049V17.5327C54.9813 16.528 54.6079 15.8391 54.0621 15.8391C53.5737 15.8391 53.3439 16.3558 53.4301 17.3891L53.2578 17.4465C52.7981 17.4178 52.396 17.303 52.396 16.8724C52.396 16.1261 53.6312 15.3511 54.7515 15.3511C55.9293 15.3511 56.5325 15.9826 56.5325 17.2169V19.3698C56.5325 19.7142 56.59 19.8291 56.7911 19.8291C56.9347 19.8291 57.0496 19.7717 57.1932 19.6568L57.3081 19.8291C56.8485 20.3458 56.3602 20.5754 55.8431 20.5754ZM54.9526 19.5994V18.1068H54.4643C53.6312 18.1068 53.4301 18.4225 53.4301 18.8818C53.4301 19.4559 53.8323 19.8291 54.2919 19.8291C54.5504 19.8291 54.809 19.7429 54.9526 19.5994Z" fill="white"/>
<path d="M0 24.9385C2.09699 24.9959 4.10781 24.9959 6.23353 24.9385V25.2829L5.975 25.3403C5.60156 25.3978 5.54411 25.4265 5.54411 26.7469V28.1247C5.54411 29.4452 5.60156 29.4739 5.975 29.5313L6.23353 29.56V29.9045C5.40048 29.847 4.25144 29.847 3.44711 29.9045V29.56L3.67692 29.5313C4.02163 29.4739 4.05036 29.4739 4.05036 28.1247V25.4265H2.18317V28.1247C2.18317 29.4452 2.2119 29.4739 2.55661 29.5313L2.81514 29.56V29.9045C1.98209 29.847 0.833052 29.847 0.0287259 29.9045V29.56L0.287259 29.5313C0.660697 29.4739 0.718149 29.4739 0.718149 28.1247V26.7469C0.718149 25.4265 0.660697 25.4265 0.287259 25.3403L0 25.2829V24.9385Z" fill="white"/>
<path d="M9.93912 31.9999C8.90498 31.9425 7.89958 31.9425 6.98035 31.9999V31.6554L7.23888 31.598C7.61232 31.5119 7.66977 31.4258 7.66977 30.2202V27.1487C7.66977 25.6274 7.61232 25.3977 7.18143 25.3403L6.98035 25.3116V24.9672C7.89958 24.9672 8.50282 24.9384 9.10607 24.7949L9.19224 24.881C9.19224 25.082 9.16352 25.369 9.16352 25.6561C9.50823 25.1394 9.99657 24.8236 10.686 24.8236C11.9787 24.8236 12.6968 25.8857 12.6968 27.2349C12.6968 29.1007 11.4616 30.0767 10.1115 30.0767C9.79549 30.0767 9.45078 30.0192 9.13479 29.9044V30.3637C9.13479 31.4545 9.22097 31.5406 9.68059 31.598L9.93912 31.6554V31.9999ZM10.1977 29.6461C10.7434 29.6461 11.1743 29.2155 11.1743 28.0386C11.1743 26.5459 10.686 25.7135 9.93912 25.7135C9.59441 25.7135 9.3646 25.857 9.16352 26.0579C9.16352 26.3737 9.16352 26.6607 9.16352 26.8617V28.096C9.16352 29.3303 9.76676 29.6461 10.1977 29.6461Z" fill="white"/>
<path d="M13.6737 27.4358C13.6737 25.8283 14.9664 24.7949 16.4601 24.7949C17.9251 24.7949 19.0455 25.7422 19.0455 27.4071C19.0455 29.0146 17.7528 30.0192 16.259 30.0192C14.794 30.0479 13.6737 29.1294 13.6737 27.4358ZM17.4943 27.8951C17.4943 26.5459 16.8623 25.2542 16.0867 25.2542C15.5409 25.2542 15.2249 25.857 15.2249 26.9478C15.2249 28.3256 15.8569 29.5887 16.6325 29.5887C17.1783 29.6174 17.4943 28.9859 17.4943 27.8951Z" fill="white"/>
<path d="M25.5948 29.9045C24.5894 29.847 23.4691 29.8757 22.5212 29.9045V29.56L22.7797 29.5026C23.1244 29.4452 23.1818 29.2729 22.7222 28.6414L22.119 27.8377L21.5445 28.5553C21.1423 29.072 21.171 29.4165 21.4008 29.4739L21.6306 29.5313V29.8757C21.0561 29.847 20.1369 29.847 19.5624 29.8757V29.5313C20.1082 29.3878 20.3954 29.2442 21.0561 28.4692L21.8605 27.5219L20.9125 26.2589C20.3093 25.4265 20.1943 25.3978 19.6773 25.2829V24.9385C20.6827 24.9959 21.6306 24.9672 22.6648 24.9385V25.2829L22.4924 25.3116C22.0903 25.3691 22.0903 25.57 22.5499 26.2015L23.0382 26.8617L23.5266 26.2302C23.9574 25.6848 23.9287 25.3978 23.6702 25.3403L23.4978 25.3116V24.9672C24.1011 25.0246 24.9054 25.0246 25.5087 24.9672V25.3116C25.049 25.4552 24.5607 25.7135 23.9574 26.345L23.268 27.1488L24.3309 28.584C24.9341 29.4165 25.049 29.5313 25.6236 29.5887V29.9045H25.5948Z" fill="white"/>
<path d="M26.3705 27.4358C26.3705 25.8283 27.6632 24.7949 29.1569 24.7949C30.6219 24.7949 31.7422 25.7422 31.7422 27.4071C31.7422 29.0146 30.4496 30.0192 28.9558 30.0192C27.5195 30.0479 26.3705 29.1294 26.3705 27.4358ZM30.191 27.8951C30.191 26.5459 29.5591 25.2542 28.7835 25.2542C28.2377 25.2542 27.9217 25.857 27.9217 26.9478C27.9217 28.3256 28.5537 29.5887 29.3293 29.5887C29.9038 29.6174 30.191 28.9859 30.191 27.8951Z" fill="white"/>
<path d="M35.5338 31.9999C34.4997 31.9425 33.4943 31.9425 32.5751 31.9999V31.6554L32.8336 31.598C33.207 31.5119 33.2645 31.4258 33.2645 30.2202V27.1487C33.2645 25.6274 33.207 25.3977 32.7762 25.3403L32.5751 25.3116V24.9672C33.4943 24.9672 34.0975 24.9384 34.7008 24.7949L34.787 24.881C34.787 25.082 34.7582 25.369 34.7582 25.6561C35.103 25.1394 35.5913 24.8236 36.2807 24.8236C37.5734 24.8236 38.2915 25.8857 38.2915 27.2349C38.2915 29.1007 37.0563 30.0767 35.7062 30.0767C35.3902 30.0767 35.0455 30.0192 34.7295 29.9044V30.3637C34.7295 31.4545 34.8157 31.5406 35.2753 31.598L35.5338 31.6554V31.9999ZM35.7924 29.6461C36.3382 29.6461 36.7691 29.2155 36.7691 28.0386C36.7691 26.5459 36.2807 25.7135 35.5338 25.7135C35.1891 25.7135 34.9593 25.857 34.7582 26.0579C34.7582 26.3737 34.7582 26.6607 34.7582 26.8617V28.096C34.7582 29.3303 35.3615 29.6461 35.7924 29.6461Z" fill="white"/>
<path d="M39.2684 27.4358C39.2684 25.8283 40.5611 24.7949 42.0548 24.7949C43.5199 24.7949 44.6402 25.7422 44.6402 27.4071C44.6402 29.0146 43.3475 30.0192 41.8538 30.0192C40.4175 30.0479 39.2684 29.1294 39.2684 27.4358ZM43.089 27.8951C43.089 26.5459 42.457 25.2542 41.6814 25.2542C41.1356 25.2542 40.8196 25.857 40.8196 26.9478C40.8196 28.3256 41.4516 29.5887 42.2272 29.5887C42.8017 29.6174 43.089 28.9859 43.089 27.8951Z" fill="white"/>
<path d="M45.8177 29.5026C46.1912 29.4452 46.2486 29.4165 46.2486 28.0961V26.6034C46.2486 25.4265 46.1912 25.3978 45.8177 25.3117L45.5592 25.283V24.9385C46.5072 24.9959 47.6849 24.9385 48.6903 24.9385C50.299 24.9098 50.816 25.4265 50.816 26.058C50.816 26.7182 50.0692 27.0914 49.2361 27.2636C50.3564 27.2923 51.0746 27.6655 51.0746 28.4405C51.0746 29.273 50.0117 29.9045 48.0296 29.9045C47.4264 29.9045 46.3061 29.8758 45.5592 29.9045V29.56L45.8177 29.5026ZM48.1158 27.1488C48.8052 27.1488 49.2361 26.8331 49.2361 26.2877C49.2361 25.771 48.8052 25.3404 47.9147 25.3404H47.7137V27.1201H48.1158V27.1488ZM47.7137 28.7276C47.7137 29.3304 47.9722 29.5313 48.4605 29.5313C48.9489 29.5313 49.4372 29.273 49.4372 28.6702C49.4372 28.0387 48.9776 27.4646 48.0009 27.4646H47.7424V28.7276H47.7137Z" fill="white"/>
<path d="M55.8431 30.0479C55.3548 30.0479 55.01 29.7896 55.01 29.2729C54.7228 29.7609 54.2632 30.0479 53.5737 30.0479C52.6545 30.0479 52.0513 29.4451 52.0513 28.6414C52.0513 27.9238 52.5683 27.4358 53.6886 27.3209L54.9813 27.1774V27.0052C54.9813 26.0005 54.6079 25.3116 54.0621 25.3116C53.5737 25.3116 53.3439 25.8283 53.4301 26.8617L53.2578 26.9191C52.7981 26.8904 52.396 26.7756 52.396 26.345C52.396 25.5986 53.6312 24.8236 54.7515 24.8236C55.9293 24.8236 56.5325 25.4551 56.5325 26.6894V28.8423C56.5325 29.1868 56.59 29.3016 56.7911 29.3016C56.9347 29.3016 57.0496 29.2442 57.1932 29.1294L57.3081 29.3016C56.8485 29.8183 56.3602 30.0479 55.8431 30.0479ZM54.9526 29.072V27.5793H54.4643C53.6312 27.5793 53.4301 27.895 53.4301 28.3543C53.4301 28.9284 53.8323 29.3016 54.2919 29.3016C54.5504 29.3016 54.809 29.2155 54.9526 29.072Z" fill="white"/>
</svg>
