<svg width="48" height="48" viewBox="0 0 48 48" fill="none" xmlns="http://www.w3.org/2000/svg">
<g clip-path="url(#clip0_2579_4331)">
<path d="M41.4318 39.6059C50.0497 29.9775 49.2305 15.1859 39.6021 6.56806C29.9737 -2.04981 15.1821 -1.23062 6.56425 8.39778C-2.05362 18.0262 -1.23443 32.8177 8.39397 41.4356C18.0224 50.0535 32.8139 49.2343 41.4318 39.6059Z" fill="#002D6E"/>
<path d="M24 0C10.7628 0 0 10.7628 0 24C0 37.2372 10.7628 48 24 48C37.2372 48 48 37.2372 48 24C48 10.7628 37.2372 0 24 0ZM24 47.6989C10.9322 47.6989 0.301058 37.0678 0.301058 24C0.301058 10.9322 10.9322 0.301058 24 0.301058C37.0678 0.301058 47.6989 10.9322 47.6989 24C47.6989 37.0678 37.0678 47.6989 24 47.6989ZM24 0.301058C10.9322 0.301058 0.301058 10.9322 0.301058 24C0.301058 37.0678 10.9322 47.6989 24 47.6989C37.0678 47.6989 47.6989 37.0678 47.6989 24C47.6989 10.9322 37.0678 0.301058 24 0.301058ZM24 47.3979C11.0827 47.3979 0.602117 36.9267 0.602117 24C0.602117 11.0733 11.0827 0.611525 24 0.611525C36.9173 0.611525 47.3979 11.0827 47.3979 24.0094C47.3979 36.9361 36.9173 47.3979 24 47.3979ZM26.813 22.5512C27.8761 22.1184 28.5253 21.441 28.9486 20.933C29.7577 20.0016 30.087 18.8632 30.087 17.7813C30.087 16.9063 29.8424 15.1658 28.3183 13.9616C27.2646 13.1525 26.3332 12.7573 24.1129 12.7573H22.9839C22.9463 12.7573 22.9181 12.7573 22.871 12.7573H18.2234V34.6782H31.4794V30.4728C31.4794 26.4461 30.1811 23.7366 26.813 22.5512ZM28.4782 33.4739H26.0886V26.1544H23.332V33.4833H21.2152V13.8487H23.3885C24.1976 13.8487 25.43 14.0274 26.305 15.1094C26.7566 15.655 27.0388 16.3889 27.1329 17.1133H23.332V18.1952H27.1705C27.1423 18.8914 27.0012 19.6723 26.3144 20.5002C25.7123 21.2528 24.7244 21.949 23.332 21.949C23.3226 21.949 23.3132 21.949 23.3038 21.949V23.0404C27.0294 23.0404 28.4782 25.5147 28.4782 30.0494V33.4739ZM19.5782 44.4249L18.214 44.0768C17.8095 43.9545 17.5272 43.7287 17.3767 43.4653C17.2638 43.2583 17.2356 43.0419 17.3109 42.7973C17.4332 42.3646 17.7436 42.214 18.0541 42.1482C17.6778 41.8848 17.452 41.5555 17.6025 41.0662C17.7907 40.4265 18.4116 40.2383 19.2113 40.4735L20.6131 40.8781L19.5782 44.4249ZM18.7879 42.5904C18.3834 42.4775 18.0729 42.5527 17.9694 42.8914C17.8848 43.1737 18.0635 43.4089 18.4681 43.5312L19.1172 43.7193L19.39 42.7691L18.7879 42.5904ZM19.0419 41.0192C18.6092 40.8969 18.3081 40.991 18.2046 41.3203C18.12 41.6213 18.3081 41.8659 18.7973 42.0165L19.5406 42.2328L19.8228 41.2544L19.0419 41.0192ZM15.8996 39.1282C15.1564 38.6954 14.4508 38.8177 14.0745 39.4669C13.6982 40.116 13.971 40.7558 14.686 41.1791L15.194 41.4802L14.5167 42.6374L15.0717 42.9667L16.9534 39.7585L15.8996 39.1282ZM14.9965 40.6993C14.5731 40.4453 14.432 40.1254 14.6296 39.7962C14.8459 39.4387 15.194 39.3916 15.608 39.6362L16.1066 39.9279L15.4857 40.9816L14.9965 40.6993ZM13.5476 37.6793L11.412 40.7181L11.9388 41.0945L14.0745 38.0557L13.5476 37.6793ZM6.95257 21.949L5.62603 21.8267L5.5884 22.2783L6.46335 23.0122C6.89612 23.3791 6.98079 23.8118 6.83967 24.1223L6.27519 24.1317C6.35045 23.9341 6.22815 23.6331 6.0588 23.4826L5.40964 22.9275C5.27793 23.2285 4.92983 23.6049 4.29008 23.5578C3.65033 23.5014 3.16111 23.1345 3.23638 22.1278C3.24579 22.0243 3.33046 21.2058 3.36809 20.9988L7.04665 21.2905L6.95257 21.949ZM3.86672 22.1372C3.81968 22.6641 4.06429 22.8428 4.34653 22.871C4.73226 22.8993 4.94865 22.5888 4.97687 22.2125L5.0145 21.7891L3.91376 21.695C3.89494 21.8644 3.87613 22.0149 3.86672 22.1372ZM9.84085 35.619C10.2548 35.5343 10.6782 35.6472 10.998 35.9953C11.4967 36.541 11.412 37.3312 10.8851 37.8205C10.3489 38.3191 9.56801 38.3379 9.05998 37.8016C8.74951 37.4724 8.66484 37.0396 8.76833 36.6445L8.11917 36.5033C8.00627 37.0772 8.1568 37.6982 8.6178 38.1968C9.38926 39.0341 10.5841 39.0341 11.3555 38.3191C12.127 37.6041 12.2211 36.4281 11.4496 35.5908C10.9698 35.0733 10.3395 34.8757 9.74677 34.9698L9.84085 35.619ZM3.36809 27.0012L3.46217 27.6033L7.47001 28.6288L7.30067 27.9514L6.36927 27.7256C6.31282 27.4434 6.25637 27.1517 6.20933 26.8601C6.16229 26.5684 6.12466 26.2768 6.08702 25.9851L6.89612 25.4865L6.84908 24.7715L3.36809 27.0012ZM5.73893 27.5751L4.18659 27.1893L5.54136 26.3238C5.56958 26.5308 5.5978 26.7472 5.63544 26.9541C5.66366 27.1611 5.70129 27.3681 5.73893 27.5751ZM7.35711 30.2093C7.52646 30.6703 7.71462 31.1219 7.93101 31.5735L5.14622 32.9377C5.2403 33.1352 5.33438 33.3328 5.43787 33.521L8.22266 32.1568C8.44845 32.5896 8.68365 33.0035 8.93767 33.4175L6.14347 34.8005C6.25637 34.9886 6.36927 35.1674 6.49157 35.3555L9.29518 33.9726L9.84085 33.6997C8.91886 32.345 8.19443 30.8773 7.6864 29.325L7.14073 29.5978L4.33712 30.9808C4.41239 31.1878 4.48765 31.3853 4.56292 31.5923L7.35711 30.2093ZM41.1886 15.5704C42.167 15.2034 43.2677 15.655 43.6723 16.7276C44.0768 17.8001 43.5312 18.8444 42.5433 19.2113C41.5649 19.5782 40.4641 19.1266 40.0596 18.0541C39.6644 16.991 40.2007 15.9373 41.1886 15.5704ZM42.3081 18.5715C42.9855 18.3175 43.3618 17.6213 43.1078 16.9251C42.8538 16.2289 42.12 15.9561 41.4332 16.2101C40.7558 16.4641 40.3795 17.1603 40.6335 17.8565C40.8875 18.5527 41.6213 18.8256 42.3081 18.5715ZM43.1078 25.4206C44.1427 25.5994 44.8577 26.5496 44.6601 27.6786C44.4626 28.8075 43.4747 29.4379 42.4304 29.2497C41.3955 29.071 40.6805 28.1207 40.8781 26.9918C41.0757 25.8722 42.0729 25.2325 43.1078 25.4206ZM42.5527 28.5723C43.2677 28.6946 43.9451 28.2807 44.0768 27.5563C44.2085 26.8318 43.7099 26.2203 42.9949 26.0886C42.2799 25.9663 41.6025 26.3802 41.4708 27.1047C41.3391 27.8385 41.8283 28.4406 42.5527 28.5723ZM39.5798 14.7236L39.9655 13.5194L42.2234 13.8393L41.8189 13.1901L39.8338 12.9643L39.6268 12.6445L40.9157 11.7977L40.5206 11.2709L37.4441 13.2842L37.8299 13.8111L39.1188 12.9643L39.3634 13.3407L38.9777 14.4414C38.7707 15.0059 38.7236 15.5421 39.1658 15.9185L39.6362 15.608C39.4387 15.4387 39.4387 15.147 39.5798 14.7236ZM32.8718 39.815L34.0666 40.2383L33.6903 42.4869L34.3489 42.1011L34.6217 40.1254L34.9416 39.9279L35.7507 41.245L36.2869 40.8687L34.3489 37.7452L33.8126 38.1121L34.6217 39.4198L34.236 39.655L33.1446 39.2411C32.5896 39.0247 32.0533 38.9588 31.6676 39.3916L31.9686 39.8714C32.1568 39.655 32.4485 39.6644 32.8718 39.815ZM40.4359 36.842L40.0314 37.3406L38.0557 35.5249L38.6578 38.8365L38.1968 39.2787L35.4779 36.7856L35.9483 36.3434L37.9428 38.178L37.3312 34.8381L37.717 34.3489L40.4359 36.842ZM31.9404 43.2866L31.3383 43.5218L30.5198 40.9628L29.4096 44.1427L28.7887 44.3026L27.6597 40.784L28.2807 40.6335L29.1086 43.2113L30.2376 40.0031L30.8114 39.7679L31.9404 43.2866ZM40.0784 33.5116C40.5206 33.6997 41.0474 33.9349 41.499 34.1607L41.5084 34.1419C41.1603 33.822 39.2881 31.7711 39.2881 31.7711L39.5327 31.2724C39.5327 31.2724 42.2517 31.6017 42.7127 31.7052L42.7221 31.6958C42.2893 31.4606 41.7719 31.1784 41.3297 30.9338L40.022 30.1905L40.2572 29.5602L43.4841 31.4512L43.1266 32.3261C43.1266 32.3261 40.6053 32.0533 40.1913 31.9592L40.1819 31.9875C40.5018 32.2603 42.2328 34.1419 42.2328 34.1419L41.7624 34.9416L38.3191 33.5022L38.686 32.9094L40.0784 33.5116ZM44.8295 23.1156L43.2866 23.2568H43.2771C43.2677 22.8993 43.2395 22.5512 43.2113 22.1936C43.1737 21.8456 43.136 21.488 43.0796 21.1399H43.089L44.6413 20.9988L44.5378 20.3497L40.8687 20.6978L40.9722 21.3469L42.4869 21.2058H42.5057C42.5621 21.5539 42.5998 21.9114 42.6374 22.2595C42.675 22.6076 42.6938 22.9651 42.7033 23.3226H42.6844L41.1697 23.4637L41.1886 24.1223L44.8577 23.7742L44.8295 23.1156ZM38.0745 8.43904C37.5664 7.97805 36.9455 7.83693 36.381 7.95923L36.5221 8.60839C36.9173 8.5049 37.3406 8.58957 37.6793 8.89063C38.1497 9.31399 38.2062 9.95374 37.8957 10.4712C37.6229 10.1889 37.3407 9.91611 37.049 9.65269C36.9267 9.53979 36.8044 9.4363 36.6821 9.3234L36.3058 9.76558C36.4281 9.86907 36.541 9.97256 36.6633 10.0855C36.9549 10.3489 37.2372 10.6217 37.51 10.904C37.0302 11.2615 36.3716 11.2709 35.9012 10.8381C35.5531 10.5276 35.4308 10.0949 35.5155 9.68091L34.8663 9.58683C34.7817 10.1795 34.9886 10.8099 35.5061 11.2803C36.3528 12.0517 37.5194 11.9388 38.2344 11.158C38.9212 10.4053 38.9118 9.21051 38.0745 8.43904ZM16.2854 6.51039C15.9655 5.51313 16.4547 4.4312 17.5461 4.0831C18.628 3.7256 19.6535 4.3089 19.9828 5.31556C20.3026 6.31282 19.8134 7.39475 18.7221 7.74285C17.6307 8.10035 16.6053 7.51705 16.2854 6.51039ZM19.3336 5.52254C19.1078 4.83575 18.421 4.4312 17.7248 4.657C17.0192 4.88279 16.7087 5.60721 16.9345 6.30341C17.1603 6.9902 17.8471 7.39475 18.5433 7.16895C19.2489 6.94316 19.5594 6.21874 19.3336 5.52254ZM15.2411 8.13798L14.0463 7.71462L14.4414 5.46609L13.7828 5.84241L13.4912 7.81811L13.1713 8.01568L12.3622 6.69855L11.826 7.07487L13.7452 10.2078L14.2909 9.84085L13.4912 8.53312L13.8769 8.29792L14.9682 8.71188C15.5233 8.93767 16.0596 9.00353 16.4453 8.57076L16.1537 8.08154C15.9467 8.29792 15.655 8.28851 15.2411 8.13798ZM11.8165 11.1015C11.459 11.4402 11.1203 11.7883 10.7911 12.1552L8.44845 10.1231C8.30733 10.283 8.1568 10.4524 8.02509 10.6217L10.3677 12.6539C10.0572 13.0208 9.76558 13.4065 9.48334 13.8016L7.12191 11.7695C6.9902 11.9483 6.8679 12.127 6.74559 12.3058L9.10702 14.3567L9.56801 14.7519C10.4524 13.3783 11.5249 12.1364 12.7573 11.0639L12.2964 10.6688L9.92552 8.6272C9.76558 8.77773 9.60565 8.91885 9.45512 9.07879L11.8165 11.1015ZM28.1584 3.56566L27.5657 3.45276L25.2419 6.8773L25.9381 6.94316L26.4649 6.14347C26.7566 6.18111 27.0482 6.22815 27.3305 6.28459C27.6221 6.34104 27.9044 6.39749 28.1866 6.46335L28.3842 7.39475L29.071 7.59232L28.1584 3.56566ZM26.813 5.60721L27.7068 4.27127L28.0643 5.83301C27.8573 5.78597 27.6503 5.74833 27.4434 5.70129C27.2364 5.67307 27.02 5.63544 26.813 5.60721ZM23.125 3.16111L21.7232 3.2646C21.695 3.2646 21.6574 3.27401 21.6292 3.27401L21.6762 3.85731L21.6856 4.00784C21.855 6.22815 21.5257 6.49157 21.1494 6.5198C21.0741 6.5292 20.98 6.5198 20.933 6.50098L20.9142 7.03724C21.0176 7.05606 21.2246 7.07487 21.3657 7.06546C22.0996 7.00902 22.4853 6.51039 22.3065 4.14896L22.2783 3.79145C22.3442 3.78205 22.4006 3.78205 22.4665 3.77264C22.8334 3.74441 23.2003 3.7256 23.5672 3.71619L23.8024 6.83026L24.4516 6.78322L24.2164 3.71619L24.1788 3.1423C23.8307 3.1423 23.4731 3.1423 23.125 3.16111ZM24.7526 43.0513C24.7526 42.6374 24.4234 42.3081 24.0094 42.3081C23.5955 42.3081 23.2662 42.6374 23.2662 43.0513C23.2662 43.4653 23.5955 43.7946 24.0094 43.7946C24.4234 43.7946 24.7526 43.4653 24.7526 43.0513ZM6.07762 17.6213C6.46335 17.7719 6.89612 17.5931 7.04665 17.2074C7.19718 16.8216 7.01842 16.3889 6.63269 16.2383C6.24696 16.0878 5.81419 16.276 5.66366 16.6523C5.51313 17.038 5.69189 17.4708 6.07762 17.6213ZM31.931 6.70796C31.7428 7.07487 31.8934 7.52646 32.2603 7.70521C32.6272 7.89337 33.0788 7.74285 33.2575 7.37593C33.4457 7.00902 33.2952 6.55743 32.9283 6.37867C32.5613 6.19051 32.1098 6.34104 31.931 6.70796Z" fill="white"/>
</g>
<defs>
<clipPath id="clip0_2579_4331">
<rect width="48" height="48" fill="white"/>
</clipPath>
</defs>
</svg>
