<svg width="96" height="32" viewBox="0 0 96 32" fill="none" xmlns="http://www.w3.org/2000/svg">
<path d="M70.9818 16.1548C69.804 15.7529 68.5401 15.6668 67.2762 15.5807C65.8111 15.4946 64.3174 15.4085 62.9098 14.8918C62.3928 14.7196 61.9044 14.4612 61.531 14.0593C60.7841 13.2269 60.9852 12.1074 61.6746 11.3324C62.0193 10.9592 62.2491 10.4999 62.7375 10.2129C63.829 9.58135 64.9781 9.58135 66.1559 9.83969C66.6442 9.92581 67.1613 10.0119 67.6496 10.1267C68.4827 10.3564 69.287 10.586 70.12 10.8157C71.4989 11.1888 72.8777 11.562 74.2278 11.9926C74.8311 12.1935 75.3482 12.1935 75.9227 11.9926C76.5259 11.7629 76.8132 11.3611 76.727 10.7008C76.6121 9.81099 76.4397 8.92113 76.2961 8.00257C76.2099 7.45718 76.1812 6.94048 76.095 6.39509C75.9514 5.47653 75.6929 4.58667 75.3482 3.69681C75.0034 2.83566 75.2045 1.65875 76.2099 1.14206C76.8706 0.797602 77.5313 0.367026 78.2495 0.137386C79.5421 -0.321895 81.553 0.424436 82.2137 1.57264C83.0754 3.0653 82.8744 4.58667 82.0413 5.99322C81.1221 7.572 80.8061 9.43782 81.1508 11.2462C81.1795 11.3611 81.3231 11.562 81.4093 11.562C81.8115 11.6194 82.2711 11.7055 82.6158 11.5907C83.535 11.2462 84.483 10.9018 85.3161 10.3564C86.264 9.72487 87.1832 9.03595 87.8152 8.00257C88.1025 7.54329 88.5046 7.08401 88.9643 6.79696C89.5962 6.39509 90.3144 6.13674 91.1187 6.30897C91.2336 6.33768 91.3772 6.36638 91.4347 6.42379C92.0379 6.94048 92.6986 7.42847 92.9572 8.23221C93.187 8.92113 92.9859 9.52394 92.5837 10.098C92.1528 10.6721 91.7219 11.2175 91.0038 11.4472C90.8027 11.5046 90.6591 11.7055 90.4867 11.849C90.1133 12.1648 89.7686 12.538 89.3951 12.8537C88.6483 13.4565 87.9876 14.1167 87.4705 14.8918C87.3843 15.0353 87.2694 15.1501 87.1545 15.2649C86.4364 15.8391 86.2066 16.6428 86.4076 17.5614C86.58 18.279 87.0109 18.9105 87.4705 19.4559C88.3323 20.4606 89.3664 21.293 90.5155 21.9245C91.4634 22.4412 92.5837 22.6996 93.5604 23.2163C94.7094 23.8191 95.284 24.7663 95.8872 25.8858C96.117 26.3164 95.9734 26.8618 95.6574 27.2924C95.2552 27.8665 94.7094 28.2683 94.1349 28.6415C93.7902 28.8711 93.4742 29.1582 93.1008 29.3591C92.2965 29.761 91.5209 29.8471 90.6304 29.5314C90.1133 29.3304 89.625 29.1295 89.2228 28.8137C89.0504 28.6989 88.9068 28.5267 88.8206 28.3258C88.5621 27.8091 88.2748 27.3498 87.7865 27.0053C87.5854 26.8618 87.4992 26.5747 87.2981 26.4025C86.896 26.0006 86.4938 25.6275 86.0917 25.2256C85.6895 24.8237 85.2873 24.4219 84.8852 24.0487C84.7128 23.9052 84.5405 23.7617 84.3681 23.6468C83.9659 23.4172 83.5925 23.1588 83.1616 23.0153C82.2998 22.6709 81.0072 22.757 80.4039 23.532C80.0879 23.9626 79.8869 24.4793 79.5709 24.9098C78.9963 25.7136 78.0771 26.1442 77.3015 26.7183C76.4685 27.3785 75.8652 28.4119 75.2045 29.2443C74.9173 29.6175 74.6587 29.9906 74.1704 30.1629C73.9406 30.2203 73.7395 30.3925 73.5384 30.536C73.1937 30.8518 72.8203 30.8805 72.3894 30.8805C71.8436 30.8805 71.2403 30.9666 70.8382 30.536C70.4073 30.1055 69.804 29.761 69.8328 29.0147C69.8328 28.9573 69.804 28.8711 69.7753 28.8137C69.287 28.0387 69.5742 27.3211 70.0051 26.6322C70.2349 26.2877 70.5222 25.9719 70.8095 25.6562C71.4127 24.996 72.0734 24.3932 72.6479 23.7042C74.7736 21.1495 74.8885 17.791 71.5563 16.3557C71.384 16.2983 71.1829 16.2122 70.9818 16.1548Z" fill="#002D6E"/>
<path d="M34.8733 12.4518C33.9828 12.3944 32.9774 12.3944 32.0582 12.4518V12.1074L32.3167 12.0787C32.7189 12.0213 32.7476 11.9926 32.7476 10.6721V10.4999C30.9091 10.4425 29.7026 9.49522 29.7026 7.88773C29.7026 6.28025 31.0528 5.33298 32.7476 5.24687C32.7476 3.6968 32.7189 3.61068 32.2592 3.55327L32.0294 3.52456V3.1801C32.9774 3.1801 33.5232 3.1514 34.1552 3.00787L34.2413 3.09399C34.2126 3.63938 34.2126 4.58665 34.2126 5.07464V5.27557C36.0511 5.33298 37.2576 6.25155 37.2576 7.88773C37.2576 9.52392 35.9074 10.4425 34.2126 10.5286V10.7008C34.2126 11.9926 34.2413 11.9926 34.701 12.1074L34.902 12.1361V12.4518H34.8733ZM32.7476 10.098V5.67744C31.7996 5.79226 31.2251 6.48119 31.2251 7.77291C31.2251 9.06464 31.7996 9.9832 32.7476 10.098ZM34.2126 5.67744V10.1267C35.1606 10.0406 35.7638 9.35169 35.7638 8.05996C35.7351 6.71083 35.1606 5.79226 34.2126 5.67744Z" fill="#002D6E"/>
<path d="M38.2343 7.88775C38.2343 6.28027 39.5269 5.24689 41.0207 5.24689C42.4857 5.24689 43.606 6.19415 43.606 7.85905C43.606 9.46653 42.3133 10.4712 40.8196 10.4712C39.3546 10.4999 38.2343 9.58135 38.2343 7.88775ZM42.0548 8.37574C42.0548 7.0266 41.4228 5.73487 40.6472 5.73487C40.1014 5.73487 39.7855 6.33768 39.7855 7.42847C39.7855 8.80631 40.4174 10.0693 41.193 10.0693C41.7388 10.0693 42.0548 9.46653 42.0548 8.37574Z" fill="#002D6E"/>
<path d="M50.8449 10.3851C50.0119 10.3277 48.8916 10.3277 48.0585 10.3851V10.0406L48.317 9.98323C48.633 9.92582 48.6905 9.89712 48.6905 8.57668V7.97388H46.7084V8.57668C46.7084 9.89712 46.7371 9.89712 47.0818 9.98323L47.3404 10.0406V10.3851C46.5073 10.3277 45.387 10.3277 44.5539 10.3851V10.0406L44.8125 9.98323C45.1859 9.92582 45.2434 9.89712 45.2434 8.57668V7.19884C45.2434 5.90711 45.1859 5.87841 44.8125 5.79229L44.5539 5.76359V5.41913C45.387 5.47654 46.5073 5.47654 47.3404 5.41913V5.76359L47.0818 5.79229C46.7658 5.8497 46.7084 5.87841 46.7084 7.19884V7.5146H48.6905V7.19884C48.6905 5.87841 48.6617 5.87841 48.317 5.79229L48.0585 5.76359V5.41913C48.8916 5.47654 50.0119 5.47654 50.8449 5.41913V5.76359L50.5864 5.79229C50.213 5.8497 50.1555 5.87841 50.1555 7.19884V8.57668C50.1555 9.89712 50.213 9.89712 50.5864 9.98323L50.8449 10.0406V10.3851Z" fill="#002D6E"/>
<path d="M56.9636 12.1074L56.8774 11.849C56.504 10.7582 56.2167 10.3564 55.4124 10.3564H53.2579C52.4823 10.3564 52.2525 10.7869 51.8791 11.849L51.7929 12.1074L51.5056 12.0787C51.5631 11.3323 51.5631 10.6721 51.5631 9.92578H52.2525C52.7121 8.8924 52.8845 7.91643 52.9707 6.91175C53.0281 6.13671 52.827 5.90707 52.5685 5.84966L52.2812 5.76355V5.39038C54.0335 5.41909 55.3262 5.41909 57.0498 5.39038V5.76355L56.8199 5.79225C56.4465 5.84966 56.3891 5.96448 56.3891 7.17009V9.89708H57.2221C57.1934 10.6434 57.2221 11.3036 57.2796 12.05L56.9636 12.1074ZM52.827 9.92578H54.8953V5.87837H53.5165L53.459 6.88304C53.3728 8.00254 53.2005 8.94981 52.827 9.92578Z" fill="#002D6E"/>
<path d="M17.8101 20.4319C17.0058 20.3744 15.7993 20.3744 14.9949 20.4319V20.0874L15.2822 20.03C15.5982 19.9726 15.6269 19.8865 15.6269 18.6234V16.2696L14.0183 19.7716C13.7885 19.7716 13.5299 19.7716 13.3001 19.7716L11.5766 16.327L11.6053 18.5947C11.6053 19.7429 11.7202 19.9439 12.1223 20.03L12.3234 20.0587V20.4032C11.7776 20.3457 11.0308 20.3457 10.485 20.4032V20.0587L10.7435 20.0013C11.0595 19.9439 11.1744 19.7429 11.1744 18.566V16.8724C11.1744 16.3844 11.1457 16.04 10.7148 15.8678L10.485 15.8103V15.4659C11.1744 15.5233 12.1223 15.5233 12.783 15.4659L14.2193 18.3364L15.512 15.4659C16.2014 15.5233 17.0919 15.5233 17.7526 15.4659V15.8103L17.4654 15.839C17.1207 15.8678 17.0632 15.9826 17.0632 17.2743V18.5947C17.0632 19.9152 17.1207 19.9439 17.4654 20.0013L17.7239 20.0587V20.4319H17.8101Z" fill="#002D6E"/>
<path d="M25.0203 20.4319C24.1873 20.3745 23.0669 20.3745 22.2339 20.4319V20.0874L22.4924 20.03C22.8084 19.9726 22.8659 19.9439 22.8659 18.6235V16.9873L20.855 19.4559C20.8838 19.9439 20.97 19.9726 21.1998 20.0013L21.4583 20.0587V20.4032C20.6252 20.3458 19.5049 20.3458 18.6719 20.4032V20.0587L18.9304 20.0013C19.3038 19.9439 19.3613 19.9152 19.3613 18.5948V17.2169C19.3613 15.9252 19.3038 15.8965 18.9304 15.8104L18.6719 15.7817V15.4372C19.5049 15.4946 20.6252 15.4946 21.4583 15.4372V15.7817L21.1998 15.8104C20.8838 15.8678 20.8263 15.8965 20.8263 17.2169V18.8244L22.8371 16.3271C22.8084 15.8678 22.7222 15.8391 22.4924 15.8104L22.2339 15.7817V15.4372C23.0669 15.4946 24.1873 15.4946 25.0203 15.4372V15.7817L24.7618 15.8104C24.3883 15.8678 24.3309 15.8965 24.3309 17.2169V18.5948C24.3309 19.9152 24.3883 19.9152 24.7618 20.0013L25.0203 20.0587V20.4319Z" fill="#002D6E"/>
<path d="M31.656 20.4319C30.6506 20.3744 29.5303 20.4032 28.5823 20.4319V20.0874L28.8409 20.03C29.1856 19.9726 29.243 19.8003 28.7834 19.1688L28.1514 18.3651L27.5769 19.0827C27.1747 19.5994 27.2035 19.9439 27.4333 20.0013L27.6631 20.0587V20.4032C27.0886 20.3744 26.1693 20.3744 25.5948 20.4032V20.0587C26.1406 19.9152 26.4279 19.7716 27.0886 18.9966L27.8929 18.0493L26.9449 16.7863C26.3417 15.9539 26.2268 15.9252 25.7097 15.8103V15.4659C26.7151 15.5233 27.6631 15.4946 28.6972 15.4659V15.8103L28.5249 15.839C28.1227 15.8965 28.1227 16.0974 28.5823 16.7289L29.0707 17.3891L29.559 16.7576C29.9899 16.2122 29.9612 15.9252 29.7026 15.8678L29.5303 15.839V15.4946C30.1335 15.552 30.9378 15.552 31.5411 15.4946V15.839C31.0815 15.9826 30.5931 16.2409 29.9899 16.8724L29.2717 17.6762L30.3346 19.1114C30.9378 19.9439 31.0527 20.0587 31.6273 20.1161V20.4319H31.656Z" fill="#002D6E"/>
<path d="M36.2809 20.5754C35.7925 20.5754 35.4478 20.317 35.4478 19.8004C35.1606 20.2883 34.7009 20.5754 34.0115 20.5754C33.0923 20.5754 32.489 19.9726 32.489 19.1688C32.489 18.4512 33.0061 17.9632 34.1264 17.8484L35.4191 17.7049V17.5327C35.4191 16.528 35.0457 15.8391 34.4999 15.8391C34.0115 15.8391 33.7817 16.3558 33.8679 17.3891L33.6955 17.4465C33.2359 17.4178 32.8338 17.303 32.8338 16.8724C32.8338 16.1261 34.069 15.3511 35.1893 15.3511C36.367 15.3511 36.9703 15.9826 36.9703 17.2169V19.3698C36.9703 19.7142 37.0277 19.8291 37.2288 19.8291C37.3725 19.8291 37.4874 19.7717 37.631 19.6568L37.7459 19.8291C37.2863 20.3458 36.7692 20.5754 36.2809 20.5754ZM35.3904 19.5994V18.1068H34.902C34.069 18.1068 33.8679 18.4225 33.8679 18.8818C33.8679 19.4559 34.2701 19.8291 34.7297 19.8291C34.9882 19.8291 35.218 19.7429 35.3904 19.5994Z" fill="#002D6E"/>
<path d="M44.6401 20.4319C43.8071 20.3745 42.6868 20.3745 41.8537 20.4319V20.0874L42.1122 20.03C42.4282 19.9726 42.4857 19.9439 42.4857 18.6235V16.9873L40.4749 19.4559C40.5036 19.9439 40.5898 19.9726 40.8196 20.0013L41.0781 20.0587V20.4032C40.2451 20.3458 39.1247 20.3458 38.2917 20.4032V20.0587L38.5502 20.0013C38.9237 19.9439 38.9811 19.9152 38.9811 18.5948V17.2169C38.9811 15.9252 38.9237 15.8965 38.5502 15.8104L38.2917 15.7817V15.4372C39.1247 15.4946 40.2451 15.4946 41.0781 15.4372V15.7817L40.8196 15.8104C40.5036 15.8678 40.4461 15.8965 40.4461 17.2169V18.8244L42.4569 16.3271C42.4282 15.8678 42.342 15.8391 42.1122 15.8104L41.8537 15.7817V15.4372C42.6868 15.4946 43.8071 15.4946 44.6401 15.4372V15.7817L44.3816 15.8104C44.0082 15.8678 43.9507 15.8965 43.9507 17.2169V18.5948C43.9507 19.9152 44.0082 19.9152 44.3816 20.0013L44.6401 20.0587V20.4319Z" fill="#002D6E"/>
<path d="M47.6276 17.0734C47.4553 19.5707 46.9095 20.5754 46.0477 20.5754C45.5019 20.5754 45.2434 20.0874 45.3296 19.4272L45.5019 19.3124C45.6743 19.3698 45.8753 19.3985 46.019 19.3698C46.6797 19.3411 47.0244 18.9392 47.1393 16.9012C47.168 16.1261 46.9669 15.9252 46.6797 15.8391L46.4499 15.7817V15.4372C47.8287 15.4946 49.7246 15.4946 51.0747 15.4372V15.7817L50.7875 15.8391C50.4428 15.8965 50.3853 15.9252 50.3853 17.2743V18.5948C50.3853 19.8004 50.414 19.9152 50.8162 20.0013L51.0747 20.0587V20.4032C50.1842 20.3745 49.0926 20.3745 48.2309 20.4032V20.0587L48.4607 20.0013C48.8628 19.9152 48.8916 19.8004 48.8916 18.5948V15.8965H47.6851L47.6276 17.0734Z" fill="#002D6E"/>
<path d="M55.8432 20.5754C55.3549 20.5754 55.0102 20.317 55.0102 19.8004C54.7229 20.2883 54.2633 20.5754 53.5739 20.5754C52.6547 20.5754 52.0514 19.9726 52.0514 19.1688C52.0514 18.4512 52.5685 17.9632 53.6888 17.8484L54.9815 17.7049V17.5327C54.9815 16.528 54.608 15.8391 54.0622 15.8391C53.5739 15.8391 53.3441 16.3558 53.4303 17.3891L53.2579 17.4465C52.7983 17.4178 52.3961 17.303 52.3961 16.8724C52.3961 16.1261 53.6314 15.3511 54.7517 15.3511C55.9294 15.3511 56.5327 15.9826 56.5327 17.2169V19.3698C56.5327 19.7142 56.5901 19.8291 56.7912 19.8291C56.9348 19.8291 57.0497 19.7717 57.1934 19.6568L57.3083 19.8291C56.8487 20.3458 56.3603 20.5754 55.8432 20.5754ZM54.9527 19.5994V18.1068H54.4644C53.6314 18.1068 53.4303 18.4225 53.4303 18.8818C53.4303 19.4559 53.8324 19.8291 54.292 19.8291C54.5506 19.8291 54.8091 19.7429 54.9527 19.5994Z" fill="#002D6E"/>
<path d="M0 24.9385C2.09699 24.9959 4.10781 24.9959 6.23353 24.9385V25.283L5.975 25.3404C5.60156 25.3978 5.54411 25.4265 5.54411 26.747V28.1248C5.54411 29.4452 5.60156 29.4739 5.975 29.5313L6.23353 29.5601V29.9045C5.40048 29.8471 4.25144 29.8471 3.44711 29.9045V29.5601L3.67692 29.5313C4.02163 29.4739 4.05036 29.4739 4.05036 28.1248V25.4265H2.18317V28.1248C2.18317 29.4452 2.2119 29.4739 2.55661 29.5313L2.81514 29.5601V29.9045C1.98209 29.8471 0.833052 29.8471 0.0287259 29.9045V29.5601L0.287259 29.5313C0.660697 29.4739 0.718149 29.4739 0.718149 28.1248V26.747C0.718149 25.4265 0.660697 25.4265 0.287259 25.3404L0 25.283V24.9385Z" fill="#002D6E"/>
<path d="M9.93919 32C8.90505 31.9426 7.89965 31.9426 6.98042 32V31.6556L7.23895 31.5981C7.61239 31.512 7.66984 31.4259 7.66984 30.2203V27.1489C7.66984 25.6275 7.61239 25.3978 7.1815 25.3404L6.98042 25.3117V24.9673C7.89965 24.9673 8.50289 24.9386 9.10614 24.795L9.19231 24.8812C9.19231 25.0821 9.16359 25.3691 9.16359 25.6562C9.5083 25.1395 9.99664 24.8237 10.6861 24.8237C11.9787 24.8237 12.6969 25.8858 12.6969 27.235C12.6969 29.1008 11.4617 30.0768 10.1115 30.0768C9.79556 30.0768 9.45085 30.0194 9.13486 29.9045V30.3638C9.13486 31.4546 9.22104 31.5407 9.68065 31.5981L9.93919 31.6556V32ZM10.1977 29.6462C10.7435 29.6462 11.1744 29.2156 11.1744 28.0387C11.1744 26.5461 10.6861 25.7136 9.93919 25.7136C9.59448 25.7136 9.36467 25.8571 9.16359 26.0581C9.16359 26.3738 9.16359 26.6609 9.16359 26.8618V28.0961C9.16359 29.3304 9.76683 29.6462 10.1977 29.6462Z" fill="#002D6E"/>
<path d="M13.6735 27.4359C13.6735 25.8284 14.9662 24.795 16.46 24.795C17.925 24.795 19.0453 25.7423 19.0453 27.4072C19.0453 29.0147 17.7526 30.0194 16.2589 30.0194C14.7939 30.0481 13.6735 29.1295 13.6735 27.4359ZM17.4941 27.8952C17.4941 26.5461 16.8621 25.2543 16.0865 25.2543C15.5407 25.2543 15.2247 25.8571 15.2247 26.9479C15.2247 28.3258 15.8567 29.5888 16.6323 29.5888C17.1781 29.6175 17.4941 28.986 17.4941 27.8952Z" fill="#002D6E"/>
<path d="M25.5948 29.9045C24.5894 29.8471 23.4691 29.8758 22.5211 29.9045V29.5601L22.7797 29.5026C23.1244 29.4452 23.1818 29.273 22.7222 28.6415L22.119 27.8377L21.5444 28.5554C21.1423 29.0721 21.171 29.4165 21.4008 29.4739L21.6306 29.5313V29.8758C21.0561 29.8471 20.1369 29.8471 19.5624 29.8758V29.5313C20.1081 29.3878 20.3954 29.2443 21.0561 28.4693L21.8604 27.522L20.9125 26.259C20.3092 25.4265 20.1943 25.3978 19.6773 25.283V24.9385C20.6827 24.9959 21.6306 24.9672 22.6648 24.9385V25.283L22.4924 25.3117C22.0902 25.3691 22.0902 25.57 22.5499 26.2016L23.0382 26.8618L23.5265 26.2303C23.9574 25.6849 23.9287 25.3978 23.6702 25.3404L23.4978 25.3117V24.9672C24.1011 25.0247 24.9054 25.0247 25.5086 24.9672V25.3117C25.049 25.4552 24.5607 25.7136 23.9574 26.3451L23.268 27.1488L24.3309 28.5841C24.9341 29.4165 25.049 29.5313 25.6235 29.5888V29.9045H25.5948Z" fill="#002D6E"/>
<path d="M26.3704 27.4359C26.3704 25.8284 27.6631 24.795 29.1568 24.795C30.6218 24.795 31.7422 25.7423 31.7422 27.4072C31.7422 29.0147 30.4495 30.0194 28.9557 30.0194C27.5194 30.0481 26.3704 29.1295 26.3704 27.4359ZM30.191 27.8952C30.191 26.5461 29.559 25.2543 28.7834 25.2543C28.2376 25.2543 27.9216 25.8571 27.9216 26.9479C27.9216 28.3258 28.5536 29.5888 29.3292 29.5888C29.9037 29.6175 30.191 28.986 30.191 27.8952Z" fill="#002D6E"/>
<path d="M35.534 32C34.4999 31.9426 33.4945 31.9426 32.5752 32V31.6556L32.8338 31.5981C33.2072 31.512 33.2646 31.4259 33.2646 30.2203V27.1489C33.2646 25.6275 33.2072 25.3978 32.7763 25.3404L32.5752 25.3117V24.9673C33.4945 24.9673 34.0977 24.9386 34.7009 24.795L34.7871 24.8812C34.7871 25.0821 34.7584 25.3691 34.7584 25.6562C35.1031 25.1395 35.5915 24.8237 36.2809 24.8237C37.5735 24.8237 38.2917 25.8858 38.2917 27.235C38.2917 29.1008 37.0565 30.0768 35.7064 30.0768C35.3904 30.0768 35.0457 30.0194 34.7297 29.9045V30.3638C34.7297 31.4546 34.8159 31.5407 35.2755 31.5981L35.534 31.6556V32ZM35.7925 29.6462C36.3383 29.6462 36.7692 29.2156 36.7692 28.0387C36.7692 26.5461 36.2809 25.7136 35.534 25.7136C35.1893 25.7136 34.9595 25.8571 34.7584 26.0581C34.7584 26.3738 34.7584 26.6609 34.7584 26.8618V28.0961C34.7584 29.3304 35.3616 29.6462 35.7925 29.6462Z" fill="#002D6E"/>
<path d="M39.2684 27.4359C39.2684 25.8284 40.561 24.795 42.0548 24.795C43.5198 24.795 44.6401 25.7423 44.6401 27.4072C44.6401 29.0147 43.3475 30.0194 41.8537 30.0194C40.4174 30.0481 39.2684 29.1295 39.2684 27.4359ZM43.0889 27.8952C43.0889 26.5461 42.457 25.2543 41.6814 25.2543C41.1356 25.2543 40.8196 25.8571 40.8196 26.9479C40.8196 28.3258 41.4515 29.5888 42.2271 29.5888C42.8017 29.6175 43.0889 28.986 43.0889 27.8952Z" fill="#002D6E"/>
<path d="M45.8179 29.5027C46.1913 29.4453 46.2488 29.4166 46.2488 28.0961V26.6035C46.2488 25.4266 46.1913 25.3979 45.8179 25.3117L45.5593 25.283V24.9386C46.5073 24.996 47.6851 24.9386 48.6905 24.9386C50.2991 24.9099 50.8162 25.4266 50.8162 26.0581C50.8162 26.7183 50.0693 27.0915 49.2363 27.2637C50.3566 27.2924 51.0747 27.6656 51.0747 28.4406C51.0747 29.273 50.0119 29.9046 48.0298 29.9046C47.4265 29.9046 46.3062 29.8758 45.5593 29.9046V29.5601L45.8179 29.5027ZM48.1159 27.1489C48.8054 27.1489 49.2363 26.8331 49.2363 26.2877C49.2363 25.771 48.8054 25.3404 47.9149 25.3404H47.7138V27.1202H48.1159V27.1489ZM47.7138 28.7276C47.7138 29.3305 47.9723 29.5314 48.4607 29.5314C48.949 29.5314 49.4373 29.273 49.4373 28.6702C49.4373 28.0387 48.9777 27.4646 48.001 27.4646H47.7425V28.7276H47.7138Z" fill="#002D6E"/>
<path d="M55.8432 30.0481C55.3549 30.0481 55.0102 29.7897 55.0102 29.273C54.7229 29.761 54.2633 30.0481 53.5739 30.0481C52.6547 30.0481 52.0514 29.4452 52.0514 28.6415C52.0514 27.9239 52.5685 27.4359 53.6888 27.3211L54.9815 27.1775V27.0053C54.9815 26.0006 54.608 25.3117 54.0622 25.3117C53.5739 25.3117 53.3441 25.8284 53.4303 26.8618L53.2579 26.9192C52.7983 26.8905 52.3961 26.7757 52.3961 26.3451C52.3961 25.5988 53.6314 24.8237 54.7517 24.8237C55.9294 24.8237 56.5327 25.4552 56.5327 26.6896V28.8424C56.5327 29.1869 56.5901 29.3017 56.7912 29.3017C56.9348 29.3017 57.0497 29.2443 57.1934 29.1295L57.3083 29.3017C56.8487 29.8184 56.3603 30.0481 55.8432 30.0481ZM54.9527 29.0721V27.5794H54.4644C53.6314 27.5794 53.4303 27.8952 53.4303 28.3545C53.4303 28.9286 53.8324 29.3017 54.292 29.3017C54.5506 29.3017 54.8091 29.2156 54.9527 29.0721Z" fill="#002D6E"/>
</svg>
