<svg width="40" height="40" viewBox="0 0 40 40" fill="none" xmlns="http://www.w3.org/2000/svg">
<g clip-path="url(#clip0_2389_8805)">
<path d="M34.5266 33.0049C41.7081 24.9812 41.0255 12.655 33.0018 5.47341C24.9781 -1.70816 12.6519 -1.0255 5.47031 6.99817C-1.71126 15.0218 -1.0286 27.3481 6.99507 34.5297C15.0187 41.7112 27.345 41.0286 34.5266 33.0049Z" fill="#002D6E"/>
<path d="M20 0C8.96903 0 0 8.96903 0 20C0 31.031 8.96903 40 20 40C31.031 40 40 31.031 40 20C40 8.96903 31.031 0 20 0ZM20 39.7491C9.11015 39.7491 0.250882 30.8898 0.250882 20C0.250882 9.11015 9.11015 0.250882 20 0.250882C30.8898 0.250882 39.7491 9.11015 39.7491 20C39.7491 30.8898 30.8898 39.7491 20 39.7491ZM20 0.250882C9.11015 0.250882 0.250882 9.11015 0.250882 20C0.250882 30.8898 9.11015 39.7491 20 39.7491C30.8898 39.7491 39.7491 30.8898 39.7491 20C39.7491 9.11015 30.8898 0.250882 20 0.250882ZM20 39.4982C9.23559 39.4982 0.501764 30.7722 0.501764 20C0.501764 9.22775 9.23559 0.509604 20 0.509604C30.7644 0.509604 39.4982 9.23559 39.4982 20.0078C39.4982 30.7801 30.7644 39.4982 20 39.4982ZM22.3442 18.7926C23.2301 18.432 23.7711 17.8675 24.1239 17.4441C24.7981 16.668 25.0725 15.7193 25.0725 14.8177C25.0725 14.0886 24.8687 12.6382 23.5986 11.6347C22.7205 10.9604 21.9443 10.6311 20.0941 10.6311H19.1533C19.1219 10.6311 19.0984 10.6311 19.0592 10.6311H15.1862V28.8985H26.2328V25.394C26.2328 22.0384 25.1509 19.7805 22.3442 18.7926ZM23.7319 27.8949H21.7405V21.7954H19.4434V27.9028H17.6793V11.5406H19.4904C20.1646 11.5406 21.1917 11.6895 21.9208 12.5911C22.2971 13.0459 22.5323 13.6574 22.6107 14.2611H19.4434V15.1627H22.6421C22.6186 15.7428 22.501 16.3936 21.9287 17.0835C21.4269 17.7107 20.6037 18.2909 19.4434 18.2909C19.4355 18.2909 19.4277 18.2909 19.4198 18.2909V19.2003C22.5245 19.2003 23.7319 21.2622 23.7319 25.0412V27.8949ZM16.3152 37.0208L15.1784 36.7307C14.8412 36.6288 14.606 36.4406 14.4806 36.2211C14.3865 36.0486 14.363 35.8683 14.4257 35.6644C14.5276 35.3038 14.7864 35.1784 15.0451 35.1235C14.7315 34.904 14.5433 34.6296 14.6688 34.2219C14.8256 33.6887 15.343 33.5319 16.0094 33.7279L17.1776 34.0651L16.3152 37.0208ZM15.6566 35.492C15.3195 35.3979 15.0608 35.4606 14.9745 35.7428C14.904 35.978 15.0529 36.174 15.39 36.276L15.931 36.4328L16.1584 35.6409L15.6566 35.492ZM15.8683 34.1827C15.5076 34.0807 15.2568 34.1591 15.1705 34.4336C15.1 34.6844 15.2568 34.8883 15.6644 35.0137L16.2838 35.194L16.519 34.3787L15.8683 34.1827ZM13.2497 32.6068C12.6303 32.2462 12.0423 32.3481 11.7287 32.8891C11.4151 33.43 11.6425 33.9632 12.2383 34.316L12.6617 34.5668L12.0972 35.5312L12.5598 35.8056L14.1278 33.1321L13.2497 32.6068ZM12.4971 33.9161C12.1443 33.7044 12.0267 33.4379 12.1913 33.1635C12.3716 32.8655 12.6617 32.8263 13.0067 33.0302L13.4222 33.2732L12.9047 34.1513L12.4971 33.9161ZM11.2897 31.3994L9.51 33.9318L9.94904 34.2454L11.7287 31.7131L11.2897 31.3994ZM5.79381 18.2909L4.68836 18.1889L4.657 18.5653L5.38612 19.1768C5.74677 19.4826 5.81733 19.8432 5.69973 20.1019L5.22932 20.1098C5.29204 19.9451 5.19012 19.6942 5.049 19.5688L4.50804 19.1062C4.39827 19.3571 4.10819 19.6707 3.57507 19.6315C3.04194 19.5845 2.63426 19.2787 2.69698 18.4398C2.70482 18.3536 2.77538 17.6715 2.80674 17.499L5.87221 17.7421L5.79381 18.2909ZM3.22227 18.4477C3.18307 18.8867 3.38691 19.0357 3.62211 19.0592C3.94355 19.0827 4.12387 18.824 4.14739 18.5104L4.17875 18.1576L3.26147 18.0792C3.24579 18.2203 3.23011 18.3457 3.22227 18.4477ZM8.20071 29.6825C8.54567 29.6119 8.89847 29.706 9.16503 29.9961C9.58056 30.4508 9.51 31.1094 9.07095 31.5171C8.62407 31.9326 7.97334 31.9483 7.54998 31.5014C7.29126 31.227 7.2207 30.8663 7.30694 30.537L6.76597 30.4194C6.67189 30.8977 6.79733 31.4151 7.1815 31.8307C7.82438 32.5284 8.82007 32.5284 9.46296 31.9326C10.1058 31.3367 10.1842 30.3567 9.54136 29.659C9.14151 29.2278 8.61623 29.0631 8.1223 29.1415L8.20071 29.6825ZM2.80674 22.501L2.88514 23.0027L6.22501 23.8573L6.08389 23.2928L5.30772 23.1047C5.26068 22.8695 5.21364 22.6264 5.17444 22.3834C5.13524 22.1403 5.10388 21.8973 5.07252 21.6543L5.74677 21.2387L5.70757 20.6429L2.80674 22.501ZM4.78244 22.9792L3.48883 22.6578L4.6178 21.9365C4.64132 22.109 4.66484 22.2893 4.6962 22.4618C4.71972 22.6343 4.75108 22.8067 4.78244 22.9792ZM6.13093 25.1744C6.27205 25.5586 6.42885 25.9349 6.60917 26.3113L4.28851 27.4481C4.36691 27.6127 4.44532 27.7773 4.53156 27.9341L6.85221 26.7973C7.04038 27.158 7.23638 27.5029 7.44806 27.8479L5.11956 29.0004C5.21364 29.1572 5.30772 29.3062 5.40964 29.463L7.74598 28.3105L8.20071 28.0831C7.43238 26.9541 6.82869 25.7311 6.40533 24.4375L5.95061 24.6648L3.61427 25.8173C3.67699 25.9898 3.73971 26.1544 3.80243 26.3269L6.13093 25.1744ZM34.3238 12.9753C35.1392 12.6695 36.0564 13.0459 36.3936 13.9396C36.7307 14.8334 36.276 15.7036 35.4528 16.0094C34.6374 16.3152 33.7201 15.9388 33.383 15.0451C33.0537 14.1592 33.5006 13.2811 34.3238 12.9753ZM35.2568 15.4763C35.8212 15.2646 36.1348 14.6844 35.9232 14.1043C35.7115 13.5241 35.1 13.2967 34.5276 13.5084C33.9632 13.7201 33.6495 14.3003 33.8612 14.8804C34.0729 15.4606 34.6844 15.688 35.2568 15.4763ZM35.9232 21.1838C36.7856 21.3328 37.3814 22.1247 37.2168 23.0655C37.0521 24.0063 36.2289 24.5316 35.3587 24.3748C34.4963 24.2258 33.9004 23.4339 34.0651 22.4931C34.2297 21.5602 35.0608 21.027 35.9232 21.1838ZM35.4606 23.8103C36.0564 23.9122 36.6209 23.5672 36.7307 22.9635C36.8405 22.3599 36.4249 21.8503 35.8291 21.7405C35.2332 21.6386 34.6688 21.9835 34.559 22.5872C34.4492 23.1987 34.8569 23.7005 35.4606 23.8103ZM32.9831 12.2697L33.3046 11.2662L35.1862 11.5327L34.8491 10.9918L33.1948 10.8036L33.0223 10.537L34.0964 9.83144L33.7671 9.39239L31.2034 11.0702L31.5249 11.5092L32.599 10.8036L32.8028 11.1172L32.4814 12.0345C32.3089 12.5049 32.2697 12.9518 32.6382 13.2654L33.0302 13.0067C32.8655 12.8655 32.8655 12.6225 32.9831 12.2697ZM27.3932 33.1791L28.3889 33.5319L28.0753 35.4057L28.6241 35.0843L28.8514 33.4379L29.118 33.2732L29.7922 34.3708L30.2391 34.0572L28.6241 31.4543L28.1772 31.7601L28.8514 32.8499L28.53 33.0459L27.6205 32.7009C27.158 32.5206 26.7111 32.4657 26.3897 32.8263L26.6405 33.2262C26.7973 33.0459 27.0404 33.0537 27.3932 33.1791ZM33.6966 30.7017L33.3595 31.1172L31.7131 29.6041L32.2148 32.3638L31.8307 32.7323L29.5649 30.6546L29.9569 30.2862L31.619 31.815L31.1094 29.0317L31.4308 28.6241L33.6966 30.7017ZM26.617 36.0721L26.1152 36.2681L25.4332 34.1356L24.508 36.7856L23.9906 36.9189L23.0498 33.9867L23.5672 33.8612L24.2572 36.0094L25.198 33.3359L25.6762 33.1399L26.617 36.0721ZM33.3987 27.9263C33.7671 28.0831 34.2062 28.2791 34.5825 28.4673L34.5904 28.4516C34.3003 28.185 32.7401 26.4759 32.7401 26.4759L32.9439 26.0604C32.9439 26.0604 35.2097 26.3348 35.5939 26.421L35.6017 26.4132C35.2411 26.2172 34.8099 25.982 34.4414 25.7781L33.3516 25.1588L33.5476 24.6335L36.2368 26.2093L35.9388 26.9385C35.9388 26.9385 33.8377 26.7111 33.4927 26.6327L33.4849 26.6562C33.7515 26.8836 35.194 28.4516 35.194 28.4516L34.802 29.118L31.9326 27.9185L32.2383 27.4245L33.3987 27.9263ZM37.3579 19.263L36.0721 19.3806H36.0643C36.0564 19.0827 36.0329 18.7926 36.0094 18.4947C35.978 18.2046 35.9467 17.9067 35.8996 17.6166H35.9075L37.2011 17.499L37.1149 16.9581L34.0572 17.2481L34.1435 17.7891L35.4057 17.6715H35.4214C35.4684 17.9616 35.4998 18.2595 35.5312 18.5496C35.5625 18.8397 35.5782 19.1376 35.586 19.4355H35.5704L34.3081 19.5531L34.3238 20.1019L37.3814 19.8118L37.3579 19.263ZM31.7287 7.03254C31.3054 6.64837 30.7879 6.53077 30.3175 6.63269L30.4351 7.17366C30.7644 7.08742 31.1172 7.15798 31.3994 7.40886C31.7915 7.76166 31.8385 8.29479 31.5798 8.72599C31.3524 8.49079 31.1172 8.26343 30.8742 8.0439C30.7722 7.94982 30.6703 7.86358 30.5684 7.7695L30.2548 8.13799C30.3567 8.22423 30.4508 8.31047 30.5527 8.40455C30.7958 8.62407 31.031 8.85143 31.2583 9.08663C30.8585 9.38455 30.3097 9.3924 29.9177 9.03175C29.6276 8.77303 29.5257 8.41239 29.5962 8.06742L29.0553 7.98902C28.9847 8.48295 29.1572 9.00823 29.5884 9.40023C30.294 10.0431 31.2662 9.94904 31.862 9.29831C32.4343 8.67111 32.4265 7.67542 31.7287 7.03254ZM13.5711 5.42532C13.3046 4.59428 13.7123 3.69267 14.6217 3.40259C15.5233 3.10466 16.3779 3.59075 16.6523 4.42964C16.9189 5.26068 16.5112 6.16229 15.6017 6.45237C14.6923 6.75029 13.8377 6.26421 13.5711 5.42532ZM16.1113 4.60212C15.9232 4.02979 15.3508 3.69267 14.7707 3.88083C14.1827 4.06899 13.924 4.67268 14.1121 5.25284C14.3003 5.82517 14.8726 6.16229 15.4528 5.97413C16.0408 5.78597 16.2995 5.18228 16.1113 4.60212ZM12.7009 6.78165L11.7052 6.42885L12.0345 4.55508L11.4857 4.86868L11.2427 6.51509L10.9761 6.67973L10.3018 5.58212L9.85496 5.89573L11.4543 8.50647L11.9091 8.20071L11.2427 7.11094L11.5641 6.91493L12.4735 7.2599C12.9361 7.44806 13.383 7.50294 13.7044 7.1423L13.4614 6.73461C13.2889 6.91494 13.0459 6.90709 12.7009 6.78165ZM9.84712 9.25127C9.5492 9.53352 9.26695 9.8236 8.99255 10.1294L7.04038 8.43591C6.92277 8.56919 6.79733 8.71031 6.68757 8.85143L8.63975 10.5449C8.38103 10.8506 8.13798 11.1721 7.90278 11.5014L5.93493 9.80792C5.82517 9.95688 5.72325 10.1058 5.62133 10.2548L7.58918 11.9639L7.97334 12.2932C8.71031 11.1486 9.60408 10.1137 10.6311 9.21991L10.247 8.89063L8.27127 7.18934C8.13799 7.31478 8.0047 7.43238 7.87926 7.56566L9.84712 9.25127ZM23.4653 2.97138L22.9714 2.8773L21.0349 5.73109L21.6151 5.78597L22.0541 5.11956C22.2971 5.15092 22.5402 5.19012 22.7754 5.23716C23.0184 5.2842 23.2536 5.33124 23.4888 5.38612L23.6535 6.16229L24.2258 6.32693L23.4653 2.97138ZM22.3442 4.67268L23.089 3.55939L23.3869 4.86084C23.2144 4.82164 23.0419 4.79028 22.8695 4.75108C22.697 4.72756 22.5167 4.6962 22.3442 4.67268ZM19.2709 2.63426L18.1027 2.7205C18.0792 2.7205 18.0478 2.72834 18.0243 2.72834L18.0635 3.21443L18.0713 3.33987C18.2125 5.19012 17.9381 5.40964 17.6245 5.43316C17.5617 5.441 17.4833 5.43316 17.4441 5.41748L17.4285 5.86437C17.5147 5.88005 17.6872 5.89573 17.8048 5.88789C18.4163 5.84085 18.7377 5.42532 18.5888 3.45747L18.5653 3.15955C18.6201 3.15171 18.6672 3.15171 18.7221 3.14387C19.0278 3.12035 19.3336 3.10466 19.6394 3.09682L19.8354 5.69189L20.3763 5.65269L20.1803 3.09682L20.149 2.61858C19.8589 2.61858 19.561 2.61858 19.2709 2.63426ZM20.6272 35.8761C20.6272 35.5312 20.3528 35.2568 20.0078 35.2568C19.6629 35.2568 19.3885 35.5312 19.3885 35.8761C19.3885 36.2211 19.6629 36.4955 20.0078 36.4955C20.3528 36.4955 20.6272 36.2211 20.6272 35.8761ZM5.06468 14.6844C5.38612 14.8099 5.74677 14.6609 5.87221 14.3395C5.99765 14.018 5.84869 13.6574 5.52724 13.5319C5.2058 13.4065 4.84516 13.5633 4.71972 13.8769C4.59428 14.1984 4.74324 14.559 5.06468 14.6844ZM26.6092 5.58996C26.4524 5.89573 26.5778 6.27205 26.8836 6.42101C27.1893 6.57781 27.5657 6.45237 27.7146 6.14661C27.8714 5.84085 27.746 5.46452 27.4402 5.31556C27.1345 5.15876 26.7581 5.2842 26.6092 5.58996Z" fill="white"/>
</g>
<defs>
<clipPath id="clip0_2389_8805">
<rect width="40" height="40" fill="white"/>
</clipPath>
</defs>
</svg>
