<svg width="38" height="21" viewBox="0 0 38 21" fill="none" xmlns="http://www.w3.org/2000/svg">
<path d="M37.0595 11.3331C37.0548 11.2874 37.0467 11.2416 37.0387 11.1962C37.025 11.1187 37.0115 11.0421 37.0154 10.968C37.0217 10.7328 36.9651 10.5348 36.7513 10.3862C36.6066 10.281 36.5814 10.0644 36.6947 9.96541C36.8447 9.84306 36.7697 9.807 36.6988 9.7729C36.6657 9.75699 36.6335 9.7415 36.6255 9.71787C36.6222 9.71137 36.6119 9.70828 36.6011 9.70503C36.5914 9.70208 36.5811 9.69899 36.5752 9.69311C36.3802 9.57553 36.3487 9.26609 36.5123 9.10519L36.5194 9.09736C36.5677 9.04419 36.6174 8.98944 36.5814 8.90096C36.5437 8.80813 36.4934 8.771 36.3928 8.76481C36.2229 8.75244 36.0279 8.56059 36.0028 8.39968C35.9902 8.31923 36.0342 8.2821 36.1097 8.26353C36.16 8.25115 36.2041 8.23878 36.1789 8.1707C36.1286 8.04074 36.0028 7.97266 35.8896 7.97266C35.8698 7.97266 35.8518 7.97097 35.8346 7.96936C35.8189 7.96788 35.8039 7.96647 35.7889 7.96647C35.6631 7.94791 35.5814 7.8984 35.5499 7.77463L35.5484 7.76813C35.5363 7.71376 35.5221 7.65038 35.4556 7.63848C35.3864 7.6261 35.3235 7.6818 35.2857 7.72512C35.1662 7.87365 35.1599 7.87983 35.0593 7.70036C35.0115 7.61481 34.9757 7.52408 34.9399 7.43354C34.8723 7.26212 34.8049 7.09136 34.6567 6.95772C34.575 6.88346 34.6567 6.7535 34.77 6.72874C34.8706 6.71018 34.8643 6.66686 34.8329 6.61116C34.8267 6.59897 34.819 6.58679 34.8111 6.57442C34.7871 6.53654 34.762 6.4969 34.7763 6.45025C34.7834 6.42916 34.7797 6.4054 34.7761 6.38234C34.7703 6.34451 34.7647 6.30857 34.8077 6.28935C34.8567 6.26526 34.8712 6.29847 34.8857 6.33154C34.8936 6.34944 34.9014 6.36729 34.9146 6.37599C34.9227 6.38055 34.9308 6.38573 34.939 6.39097C34.9753 6.41417 35.0131 6.43837 35.0593 6.41312C35.1222 6.3698 35.0782 6.3141 35.0467 6.27697C34.9577 6.1485 34.9751 6.01451 34.9932 5.87502C34.9943 5.86668 34.9953 5.85833 34.9964 5.84995C35.0341 5.62716 35.1914 5.50958 35.4367 5.54671C35.4807 5.5529 35.5247 5.54052 35.5499 5.50958C35.5876 5.46007 35.5499 5.42294 35.5122 5.39199C35.4304 5.32392 35.4115 5.23727 35.399 5.13207C35.3864 5.00211 35.3549 4.86595 35.3235 4.73599C35.3097 4.6781 35.2905 4.62141 35.2713 4.56479C35.2289 4.43986 35.1866 4.3153 35.204 4.17901C35.2239 4.01689 35.2003 3.85476 35.1771 3.69573C35.1711 3.65444 35.1651 3.61335 35.1599 3.57252C35.1348 3.39305 35.1725 3.26928 35.2983 3.15788C35.3129 3.14355 35.3332 3.13077 35.3538 3.1179C35.4041 3.08631 35.4554 3.05414 35.4241 2.99698C35.4166 2.98212 35.4099 2.96616 35.4032 2.94999C35.3708 2.87188 35.3362 2.78869 35.1851 2.79894C35.1482 2.80075 35.1092 2.80576 35.0696 2.81083C34.9741 2.82308 34.8752 2.83576 34.7951 2.80513C34.5624 2.7123 34.3863 2.77419 34.2102 2.91653C34.1932 2.9295 34.1791 2.94801 34.1649 2.9666C34.1317 3.01009 34.0983 3.05394 34.0278 3.02792C34.0561 2.97223 34.095 2.92697 34.1339 2.88172C34.1469 2.86663 34.1598 2.85155 34.1724 2.83607C34.3234 2.64422 34.3108 2.44619 34.1913 2.24196C34.1095 2.10581 34.0152 2.0006 33.8265 2.06868C33.7321 2.09962 33.7196 2.01917 33.7196 1.95109C33.7196 1.86403 33.7575 1.88893 33.7899 1.91024C33.8013 1.91771 33.812 1.92473 33.8202 1.92634C34.1473 1.96347 34.1473 1.96347 34.1787 1.6231C34.1787 1.61072 34.1787 1.59215 34.185 1.58596C34.2416 1.48076 34.3045 1.36936 34.4555 1.44362C34.575 1.49932 34.6442 1.44362 34.7008 1.34461C34.7511 1.25796 34.814 1.20227 34.9209 1.17132C35.0341 1.14038 35.0845 1.06612 35.0907 0.917588C35.0952 0.78928 35.029 0.78117 34.9656 0.773406C34.9403 0.77031 34.9155 0.767268 34.8958 0.756683C34.8728 0.743598 34.8498 0.728684 34.8265 0.713566C34.7287 0.650035 34.6253 0.582918 34.4932 0.632909C34.4877 0.635623 34.4822 0.637147 34.4772 0.638524C34.4708 0.640288 34.4653 0.641811 34.4618 0.645287C34.4649 0.639098 34.4681 0.631363 34.4712 0.623627C34.4743 0.615891 34.4775 0.608155 34.4806 0.601966C34.5624 0.509136 34.6127 0.403929 34.5624 0.280156C34.5482 0.245288 34.5154 0.22177 34.482 0.197797C34.4264 0.157946 34.369 0.116835 34.3926 0.0202319C34.3989 0.00785447 34.3423 -0.0107115 34.3234 0.00785447C34.2501 0.108348 34.1342 0.157343 34.0176 0.206659C33.8541 0.275786 33.6892 0.345543 33.6378 0.558646C33.6305 0.58749 33.6174 0.616335 33.6042 0.645543C33.5835 0.691526 33.5623 0.738429 33.5623 0.787626C33.5623 0.837135 33.5623 0.886645 33.4931 0.874267C33.2876 0.841261 33.1437 0.945781 32.9997 1.0503C32.9277 1.10256 32.8557 1.15482 32.7761 1.18989C32.6602 1.24199 32.5531 1.30609 32.4455 1.37046C32.3487 1.42842 32.2514 1.48661 32.1471 1.53645C31.8829 1.66023 31.6439 1.83351 31.4929 2.06249C31.4493 2.12591 31.4097 2.19102 31.3703 2.25577C31.279 2.40588 31.1889 2.55411 31.0526 2.67517C31.0412 2.68515 31.0288 2.69438 31.0164 2.70356C30.9674 2.73992 30.9193 2.77559 30.9394 2.85464C31.0044 2.83242 31.0313 2.88126 31.0594 2.93234C31.094 2.99506 31.1304 3.06115 31.2413 3.00317C31.3042 2.97222 31.4741 2.95366 31.5055 3.11456C31.5433 3.27547 31.4552 3.26928 31.3357 3.2569C31.2989 3.25088 31.2562 3.28593 31.2192 3.31635L31.2162 3.31879C31.1722 3.34973 31.1344 3.35592 31.0904 3.32498C31.0355 3.28898 31.0575 3.2588 31.0875 3.21752L31.0904 3.21358C31.1344 3.16407 31.1093 3.12694 31.0652 3.08362C31.0023 3.02173 30.9583 3.02173 30.8828 3.07743C30.7885 3.14551 30.7382 3.19502 30.8011 3.31879C30.8702 3.44875 30.7319 3.82007 30.5872 3.83864C30.4881 3.85257 30.4598 3.90484 30.4306 3.95884C30.4209 3.97679 30.4111 3.99493 30.3985 4.01192C30.347 4.07946 30.3111 4.16237 30.2767 4.242L30.2712 4.25463C30.2696 4.25832 30.268 4.26199 30.2664 4.26566C30.2035 4.41418 29.9834 4.47607 29.9079 4.38324C29.7066 4.13569 29.4802 4.11094 29.2349 4.32135C29.065 4.46369 28.9267 4.63079 28.8512 4.85358C28.8135 4.97116 28.738 5.13207 28.5367 5.01448C28.4904 4.98716 28.4373 4.9967 28.3849 5.00611C28.3661 5.00949 28.3474 5.01285 28.3291 5.01448C28.305 5.01631 28.2777 5.02565 28.2496 5.03524C28.1824 5.05818 28.1112 5.0825 28.0712 5.00829C27.9706 4.81026 27.8259 4.89071 27.7253 4.9526C27.5744 5.05161 27.4108 5.10731 27.241 5.14445C27.1352 5.16909 27.0418 5.22282 26.9481 5.27668C26.8301 5.34453 26.7117 5.41258 26.568 5.42294C26.5114 5.42912 26.4673 5.49101 26.5491 5.52814C26.6825 5.58781 26.623 5.63022 26.5565 5.67756L26.5491 5.68286C26.3919 5.79425 26.4548 5.88708 26.5743 5.97373C26.5951 5.98964 26.6193 5.99971 26.6434 6.00977C26.685 6.02707 26.7265 6.04434 26.7504 6.09131C26.7526 6.09801 26.7598 6.10309 26.7672 6.10831C26.7802 6.11756 26.7939 6.12723 26.7818 6.14701C26.763 6.17176 26.7441 6.18414 26.7126 6.17176C26.6263 6.12182 26.5851 6.16458 26.536 6.21548C26.5243 6.22764 26.5121 6.24027 26.4988 6.25222C26.4825 6.2668 26.4672 6.28516 26.4514 6.30414C26.4003 6.36572 26.3437 6.43385 26.2283 6.40074C26.1812 6.38529 26.1559 6.43413 26.1342 6.47593C26.1298 6.48435 26.1256 6.49249 26.1214 6.49976C26.0535 6.61505 26.019 6.67382 25.971 6.68774C25.921 6.70221 25.8566 6.66819 25.7251 6.59878C25.7164 6.59451 25.7093 6.58507 25.702 6.57556C25.6883 6.55753 25.6744 6.53925 25.6496 6.55546C25.6119 6.58021 25.6182 6.61735 25.6308 6.66067C25.6579 6.77279 25.6804 6.88952 25.7022 7.0029L25.7071 7.02865C25.7089 7.03804 25.7107 7.04741 25.7125 7.05674C25.7129 7.05853 25.7133 7.06032 25.7137 7.06211C25.7139 7.06331 25.7142 7.0645 25.7145 7.0657C25.7207 7.09349 25.7265 7.11982 25.6811 7.13101C25.5679 7.16814 25.2156 7.03818 25.2156 6.92678C25.2124 6.80474 25.1515 6.71103 25.0911 6.61797C25.0351 6.53172 24.9794 6.44603 24.9703 6.33886C24.9578 6.22127 24.637 6.10369 24.5301 6.14701L24.5226 6.15007C24.3739 6.21108 24.2196 6.27442 24.0835 6.12225C24.0709 6.10988 24.0394 6.10369 24.0394 6.12844C24.0394 6.17242 24.0156 6.21328 23.9917 6.25434C23.9482 6.32884 23.9044 6.40401 24.0017 6.49976C24.0331 6.5307 24.0898 6.62354 24.0143 6.66686C23.8831 6.74699 23.7388 6.75346 23.5933 6.76C23.5365 6.76255 23.4795 6.76511 23.423 6.77206C23.3664 6.77825 23.3224 6.7535 23.3476 6.67923C23.3727 6.61735 23.3035 6.5864 23.2721 6.59259C23.2051 6.60623 23.1355 6.60484 23.0659 6.60345C22.946 6.60105 22.826 6.59865 22.7186 6.67304C22.6242 6.74112 22.5299 6.79682 22.4607 6.63591C22.4544 6.62354 22.3915 6.52452 22.3726 6.63591C22.3713 6.64476 22.3708 6.65309 22.3704 6.6608C22.3686 6.69084 22.3674 6.71144 22.3223 6.71636C22.2657 6.72255 22.2154 6.70399 22.1776 6.66686C22.1686 6.65795 22.1717 6.63781 22.1748 6.61829C22.1803 6.58356 22.1854 6.55075 22.121 6.5864C22.098 6.59772 22.0698 6.60156 22.041 6.60547C21.9755 6.61438 21.9077 6.6236 21.8946 6.72255L21.894 6.72767C21.888 6.78053 21.884 6.81577 21.9449 6.82776C21.9518 6.83002 21.9603 6.82652 21.969 6.82296C21.9842 6.81675 21.9998 6.81035 22.0078 6.83395C22.0141 6.84633 21.9764 6.88965 21.9638 6.88965C21.9175 6.88137 21.8909 6.90906 21.8671 6.93387C21.8553 6.94617 21.8442 6.95776 21.8317 6.96391C21.794 6.98012 21.7634 7.0076 21.7333 7.03466C21.6828 7.07993 21.6337 7.12406 21.5549 7.11244C21.5447 7.10991 21.5313 7.11151 21.5186 7.11303C21.5001 7.11522 21.4832 7.11724 21.4795 7.10625C21.4759 7.10276 21.4884 7.09138 21.5022 7.07878C21.5129 7.06907 21.5243 7.05864 21.5298 7.05055C21.5602 6.96754 21.6231 6.91481 21.6876 6.86083C21.7433 6.8142 21.8001 6.76663 21.838 6.6978C21.9323 6.51833 22.0456 6.34505 22.2028 6.19652C22.3538 6.06037 22.3915 5.8809 22.36 5.68905C22.3286 5.4972 22.2091 5.31773 22.0581 5.25584C21.882 5.18158 21.6493 5.14445 21.4732 5.3301C21.4606 5.34867 21.4228 5.36105 21.404 5.35486C21.36 5.34248 21.3725 5.30535 21.3914 5.27441C21.492 5.10731 21.4103 5.08875 21.2593 5.10112C21.2364 5.10564 21.21 5.09037 21.1828 5.07457C21.1728 5.06873 21.1626 5.06281 21.1524 5.0578C21.1568 5.05197 21.1613 5.04545 21.1658 5.03881C21.1805 5.01727 21.1961 4.99446 21.2153 4.98973C21.3851 4.94022 21.2908 4.90309 21.209 4.88452C21.1754 4.8757 21.1434 4.85431 21.1118 4.83322C21.0548 4.79513 20.9993 4.75804 20.9385 4.79788C20.775 4.8969 20.6052 5.05162 20.6115 5.23727C20.6115 5.45388 20.5297 5.46007 20.3724 5.43531C20.3284 5.42912 20.2781 5.4415 20.3095 5.49101C20.3813 5.61146 20.3143 5.61762 20.2491 5.62361C20.2171 5.62655 20.1856 5.62944 20.1712 5.64573C20.1334 5.68905 20.0768 5.61478 20.1083 5.54671C20.1146 5.54052 20.0957 5.50958 20.0831 5.50339C20.0391 5.47863 19.517 5.62097 19.5233 5.6581C19.5494 5.76929 19.4914 5.76819 19.4343 5.7671C19.4089 5.76661 19.3836 5.76613 19.3661 5.77569C19.3283 5.79425 19.2843 5.80044 19.2403 5.80044C19.1338 5.80044 19.0434 5.8468 18.9529 5.89326C18.8564 5.94282 18.7596 5.99249 18.6427 5.9861C18.6166 5.9861 18.5875 6.0009 18.5575 6.01617C18.5441 6.02298 18.5305 6.02988 18.5169 6.03561C18.2653 6.12225 18.2402 6.24603 18.4352 6.41931C18.5358 6.51214 18.5484 6.54927 18.4792 6.56165C18.433 6.56891 18.3885 6.58098 18.3442 6.59299C18.2375 6.6219 18.1319 6.65051 18.0074 6.61116C17.9116 6.58495 17.8112 6.56319 17.7139 6.5421L17.7129 6.54187C17.6956 6.53814 17.6785 6.53442 17.6615 6.5307C17.542 6.50595 17.4288 6.50595 17.4225 6.67923C17.4212 6.70029 17.421 6.72159 17.4207 6.74294C17.4197 6.82828 17.4187 6.91441 17.3533 6.98867C17.3219 7.01961 17.3533 7.09387 17.391 7.10625C17.4845 7.13909 17.5053 7.21724 17.5259 7.29446C17.5441 7.36276 17.5622 7.43034 17.6301 7.46519C17.6489 7.47757 17.6426 7.50851 17.6238 7.50233C17.5895 7.48787 17.5457 7.4978 17.5038 7.50729C17.4382 7.52217 17.3774 7.53595 17.3659 7.45282C17.3369 7.26756 17.2301 7.14794 17.1195 7.02398C17.086 6.98645 17.0521 6.94848 17.0199 6.90821C16.9633 6.84014 16.9067 6.84014 16.8501 6.87108C16.8423 6.87655 16.833 6.88182 16.8233 6.88727C16.7783 6.9127 16.7262 6.94208 16.7935 7.01342C16.825 7.05055 16.8061 7.10006 16.7746 7.11244C16.752 7.12729 16.7429 7.10873 16.7339 7.09016C16.7278 7.07778 16.7218 7.06541 16.7117 7.06293C16.6048 7.01342 16.5293 7.04436 16.5105 7.16195C16.4916 7.26097 16.5105 7.3538 16.5985 7.42806C16.63 7.45282 16.674 7.52089 16.5985 7.52708C16.5293 7.52708 16.4538 7.47138 16.3972 7.42806C16.3612 7.39702 16.3736 7.35962 16.3858 7.32269C16.3906 7.30809 16.3955 7.29356 16.3972 7.27953C16.4128 7.18779 16.4581 7.10221 16.5033 7.01681C16.5862 6.86027 16.6688 6.70434 16.5671 6.51214C16.5651 6.5062 16.5663 6.49773 16.5676 6.48834C16.5704 6.46839 16.5739 6.44431 16.5482 6.43169C16.5293 6.4255 16.4916 6.4255 16.4727 6.43787C16.4378 6.46244 16.4504 6.49091 16.4634 6.52019C16.4667 6.52778 16.4701 6.53543 16.4727 6.54308C16.5482 6.79063 16.4853 6.90821 16.2463 6.98867C16.0953 7.03818 15.9695 7.10625 16.0136 7.31667C16.0387 7.44044 16.0513 7.6261 15.9758 7.69417C15.8878 7.77463 15.8123 7.86127 15.762 7.9541C15.7179 8.03455 15.6928 8.115 15.6928 8.22021C15.6928 8.2383 15.6741 8.25962 15.657 8.27922C15.6331 8.30657 15.6121 8.33058 15.6487 8.33779C15.6877 8.34801 15.7266 8.37511 15.7629 8.40036C15.8146 8.43627 15.8608 8.46844 15.8941 8.443C15.9805 8.37798 16.0176 8.41807 16.0552 8.4587C16.0641 8.46834 16.0731 8.47802 16.0827 8.48632C16.1016 8.50489 16.1268 8.56059 16.1205 8.56678C16.1007 8.58622 16.0859 8.5739 16.0699 8.56052C16.0604 8.55261 16.0504 8.54432 16.0387 8.54202C15.7431 8.48632 15.6173 8.57296 15.5733 8.86383C15.5607 8.96285 15.5292 9.06806 15.4097 9.11138C15.3657 9.12994 15.3028 9.16708 15.2902 9.20421C15.2359 9.35272 15.1062 9.38148 14.9735 9.41092L14.9569 9.41462C14.9485 9.41626 14.9401 9.41769 14.9316 9.41911C14.8764 9.42842 14.8214 9.43767 14.7996 9.50745C14.7745 9.58172 14.7116 9.5879 14.6801 9.55077C14.6172 9.47651 14.5795 9.38368 14.699 9.32798C14.7241 9.3156 14.743 9.30323 14.7619 9.28466C14.7778 9.27145 14.7938 9.25827 14.8097 9.24511L14.813 9.2424C15.0348 9.05903 15.2542 8.87758 15.4412 8.65342C15.4852 8.60391 15.4852 8.5544 15.4601 8.51108C15.3468 8.28829 15.4286 8.10881 15.5355 7.93553C15.5858 7.85509 15.6362 7.77461 15.6739 7.68799L15.8249 7.3538C15.847 7.30477 15.8363 7.25575 15.8259 7.20831C15.8126 7.14795 15.8 7.09015 15.8563 7.03818C15.9364 6.97123 15.9986 6.88674 16.0608 6.80224C16.0964 6.75396 16.1319 6.70568 16.1708 6.66067C16.2652 6.55546 16.2337 6.4812 16.1394 6.39455C16.0971 6.35598 16.0404 6.33874 15.9866 6.32238C15.9282 6.30463 15.8732 6.2879 15.8437 6.24603C15.7742 6.13853 15.7321 6.17764 15.6896 6.21713C15.6783 6.22766 15.6669 6.23821 15.655 6.24603C15.611 6.27697 15.5607 6.32029 15.5355 6.3698C15.4349 6.59878 15.2525 6.71018 15.0072 6.7535C14.8625 6.77825 14.6738 7.06293 14.7367 7.13101C14.8311 7.23002 14.7178 7.31048 14.699 7.31667C14.6361 7.33523 14.6046 7.37236 14.5858 7.41568L13.6045 6.45025C13.5982 6.4255 13.5794 6.40693 13.5416 6.40074C13.485 6.39455 13.441 6.41312 13.4158 6.46882C13.4123 6.47755 13.4085 6.48629 13.4047 6.49502C13.3816 6.54807 13.3583 6.60143 13.3907 6.65448C13.4621 6.76188 13.4494 6.87205 13.4368 6.98129C13.4305 7.0357 13.4242 7.08988 13.4284 7.14338C13.4347 7.23621 13.3781 7.25478 13.3026 7.25478C13.2271 7.25478 13.158 7.21146 13.1705 7.13719C13.2 6.99238 13.1247 6.98853 13.0273 6.98356C13.0206 6.98322 13.0138 6.98287 13.007 6.98248C12.9843 6.98162 12.9615 6.98136 12.9387 6.98109C12.7973 6.97947 12.6571 6.97785 12.5541 6.83395C12.5164 6.78444 12.4158 6.7535 12.334 6.81538C12.3283 6.81984 12.3229 6.8249 12.3175 6.82984C12.2933 6.85233 12.2717 6.87231 12.2459 6.82157C12.2408 6.81312 12.2333 6.80514 12.2257 6.79711C12.2057 6.77573 12.1853 6.75405 12.2082 6.72255C12.2208 6.70399 12.2313 6.68336 12.242 6.66227C12.2634 6.62009 12.2858 6.57609 12.3277 6.54308C12.3477 6.52623 12.3754 6.52978 12.3998 6.53289C12.4291 6.53663 12.4535 6.53975 12.4535 6.50595C12.449 6.45717 12.4025 6.4497 12.358 6.44255C12.3404 6.43972 12.3231 6.43695 12.3088 6.43169C12.2567 6.40835 12.2045 6.40613 12.1496 6.4038C12.1317 6.40304 12.1135 6.40227 12.095 6.40074C11.857 6.37219 11.619 6.33309 11.376 6.29317L11.315 6.28316H11.3087C11.1578 6.19652 11.0005 6.1532 10.881 6.3141C10.7867 6.44406 10.686 6.40693 10.5854 6.35742C10.4722 6.29554 10.4344 6.02323 10.5351 5.92422C10.6169 5.84995 10.7238 5.8252 10.8244 5.94278C10.881 6.01705 10.9439 5.97373 10.9942 5.89946C11.1138 5.71999 11.0949 5.54671 10.9313 5.40437C10.925 5.39916 10.9186 5.39431 10.9124 5.38957C10.8818 5.36613 10.8548 5.34549 10.8496 5.29916C10.8482 5.29118 10.8477 5.28233 10.8473 5.27343C10.8455 5.24093 10.8437 5.20766 10.7993 5.21252C10.7552 5.21252 10.7426 5.26822 10.7489 5.30535C10.7678 5.50958 10.6231 5.59003 10.4785 5.67048C10.4599 5.68066 10.4409 5.68966 10.4225 5.6984C10.329 5.74282 10.2498 5.78044 10.3024 5.93041C10.3212 5.97373 10.2583 6.01705 10.208 6.03561C10.1262 6.07274 10.0445 6.11606 9.9627 6.15939C9.95455 6.16474 9.94521 6.17471 9.93623 6.18431C9.92443 6.19693 9.91324 6.20889 9.90609 6.20889C9.87126 6.19421 9.88761 6.16402 9.89907 6.14286C9.90057 6.1401 9.90198 6.13748 9.90319 6.13508C9.90442 6.13263 9.90543 6.1304 9.90609 6.12844C9.94333 6.03228 9.90135 5.95306 9.86172 5.87824C9.84778 5.85195 9.83414 5.8262 9.82433 5.80044C9.80062 5.74992 9.74467 5.76285 9.68607 5.7764C9.65136 5.78443 9.61572 5.79267 9.58531 5.78807C9.57385 5.78581 9.56155 5.78684 9.54934 5.78787C9.52803 5.78966 9.50696 5.79142 9.49096 5.77569C9.4237 5.6971 9.33958 5.70698 9.25737 5.71663C9.21659 5.72141 9.17627 5.72615 9.13873 5.71999C8.98628 5.69096 8.96071 5.78677 8.93577 5.88023C8.92881 5.90631 8.9219 5.93221 8.91229 5.95516C8.88126 6.03455 8.82572 6.02957 8.75778 6.02348L8.75505 6.02324C8.67328 6.01705 8.6607 5.97373 8.65441 5.90565C8.64812 5.76331 8.63554 5.61478 8.62296 5.47244C8.62252 5.46809 8.6222 5.46355 8.62196 5.45888C8.62159 5.4519 8.62139 5.44464 8.62119 5.43728C8.61961 5.3796 8.61787 5.31589 8.5349 5.33629C8.51786 5.33934 8.49662 5.33826 8.47418 5.33712C8.40555 5.33362 8.32579 5.32956 8.32105 5.4415C8.31896 5.47843 8.2989 5.514 8.27898 5.54934C8.23879 5.62059 8.19914 5.6909 8.30847 5.7695C8.33268 5.78737 8.29281 5.8167 8.26735 5.83543L8.26444 5.83757C8.21412 5.88708 8.15122 5.89327 8.1009 5.85614C8.01913 5.79425 8.02542 5.69524 8.038 5.60859C8.04176 5.57534 8.05672 5.54209 8.07168 5.50884C8.10685 5.43069 8.14202 5.35255 8.03171 5.27441C8.00655 5.25584 8.02542 5.18777 8.06316 5.17539C8.13379 5.14836 8.1726 5.09244 8.21165 5.03616C8.2352 5.00222 8.25884 4.96815 8.2896 4.94022C8.29558 4.93518 8.30132 4.93013 8.30696 4.92518C8.34286 4.89369 8.37447 4.86595 8.43426 4.86595C8.5978 4.85358 8.64812 4.76075 8.6607 4.59984C8.6674 4.53165 8.67968 4.46034 8.69158 4.39117C8.71316 4.26577 8.73352 4.14738 8.71731 4.06762C8.69215 3.95003 8.79279 3.89433 8.86198 3.93765C8.88714 3.95622 8.86826 4.0243 8.8494 4.04905C8.79908 4.10475 8.76134 4.16664 8.79278 4.24709C8.82098 4.32107 8.82889 4.39812 8.83673 4.47442C8.84462 4.5513 8.85243 4.62742 8.88084 4.69886C8.90462 4.76125 8.92479 4.82555 8.94497 4.88987C9.02087 5.13179 9.09685 5.37399 9.36516 5.51576C9.56015 5.61478 9.89351 5.54052 10.013 5.35486C10.0822 5.24346 10.1325 5.13826 10.164 5.00829C10.179 4.94193 10.1605 4.89533 10.1431 4.85149C10.1313 4.82174 10.12 4.79327 10.12 4.76075C10.1137 4.53177 10.1388 4.30279 10.1766 4.07381C10.195 3.95162 10.1461 3.84267 10.0988 3.73728C10.0814 3.69855 10.0643 3.66028 10.0508 3.62203C10.0401 3.58912 10.0296 3.56264 10.0209 3.54058C9.98882 3.45897 9.9805 3.43782 10.0696 3.37449C10.1011 3.34973 10.1074 3.32498 10.0948 3.28785C10.088 3.27112 10.0858 3.24987 10.0836 3.22862C10.0776 3.17126 10.0717 3.11389 9.97528 3.14551C9.94919 3.14807 9.96207 3.09099 9.97664 3.02639C9.9972 2.9353 10.0211 2.82929 9.94383 2.85464C9.86835 2.87939 9.83061 2.88558 9.80546 2.87939C9.79917 2.87939 9.79288 2.87939 9.78659 2.8732C9.72413 2.86092 9.65617 2.85947 9.59181 2.85811C9.55894 2.85741 9.52702 2.85673 9.49725 2.85464C9.4634 2.85242 9.42549 2.84382 9.38847 2.83543C9.32234 2.82043 9.25905 2.80608 9.22679 2.82988C9.19477 2.8531 9.15869 2.87231 9.1223 2.89169C9.02285 2.94465 8.92105 2.99886 8.89342 3.13932C8.86826 3.26928 8.79279 3.39305 8.62925 3.38686C8.39652 3.38068 8.26444 3.51064 8.15751 3.68392C8.10166 3.77184 8.02597 3.80609 7.93485 3.84732C7.92338 3.85251 7.91157 3.85786 7.89962 3.86339C7.85823 3.88375 7.81242 3.89936 7.76584 3.91522C7.62837 3.96204 7.48426 4.01112 7.42788 4.19139C7.40272 4.27803 7.27064 4.40799 7.19516 4.40181C6.99243 4.37964 6.97121 4.48645 6.94641 4.61121C6.94353 4.62573 6.94055 4.64071 6.93727 4.65554C6.88066 4.93403 6.82406 4.96497 6.53472 4.93403C6.16362 4.94022 5.77994 4.88452 5.40254 4.81645C5.39468 4.8149 5.38643 4.81219 5.37817 4.80948C5.3534 4.80136 5.32864 4.79324 5.31449 4.81645C5.3082 4.82882 5.32706 4.86595 5.33964 4.88452C5.34819 4.90275 5.35997 4.92034 5.37161 4.93773C5.41136 4.99709 5.44952 5.05408 5.35222 5.12588C5.32078 5.15063 5.32078 5.25584 5.36481 5.31154C5.3994 5.35044 5.39128 5.38934 5.38316 5.42824C5.38095 5.43885 5.37873 5.44946 5.37739 5.46007C5.37739 5.46151 5.37741 5.463 5.37744 5.46452C5.37749 5.46661 5.37756 5.46876 5.37763 5.47095C5.3784 5.49441 5.37931 5.52195 5.35222 5.52195C5.32602 5.52195 5.32165 5.50047 5.31728 5.47898C5.31641 5.47468 5.31553 5.47038 5.31449 5.46626C5.23272 5.17539 4.82388 5.01448 4.59115 5.20633C4.40245 5.36105 4.20747 5.47244 3.95587 5.46626C3.89927 5.46626 3.85524 5.50339 3.85524 5.55908C3.85524 5.66429 3.83008 5.73856 3.6917 5.70142C3.64767 5.68905 3.60993 5.70761 3.59735 5.75093C3.5734 5.80984 3.52856 5.86127 3.48352 5.91293C3.38659 6.0241 3.28872 6.13635 3.39607 6.32648C3.40557 6.34517 3.39625 6.37003 3.38536 6.39907C3.36739 6.44696 3.34517 6.5062 3.39607 6.56784C3.54074 6.74112 3.49671 6.88965 3.29544 6.98248C3.0061 7.11244 2.79854 7.44044 2.82369 7.73131C2.82999 7.81176 2.80483 7.87983 2.72935 7.90459C2.66016 7.92934 2.58468 7.8984 2.55952 7.83651C2.47146 7.58897 2.3834 7.64467 2.2639 7.81795C2.24534 7.8423 2.21917 7.86215 2.19213 7.88268C2.16419 7.90388 2.13532 7.92579 2.11294 7.9541L2.10665 7.96029C2.03746 8.04074 2.06262 8.16451 2.16326 8.19546C2.46517 8.29447 2.52807 8.59153 2.29535 8.80813L2.23874 8.86383C2.15068 8.93191 2.12552 9.01236 2.19471 9.11138C2.23874 9.17326 2.2639 9.25372 2.20729 9.30942C2.05004 9.44557 1.96827 9.57553 2.11294 9.77975C2.23874 9.95304 2.32679 10.1387 2.35196 10.3739C2.36223 10.475 2.39677 10.5798 2.43219 10.6873C2.46179 10.7771 2.49202 10.8688 2.5092 10.9618C2.52178 11.0299 2.48404 11.0979 2.42743 11.0979C2.28448 11.0927 2.19501 11.1752 2.1065 11.2568C2.08986 11.2722 2.07325 11.2875 2.05633 11.3022C2.01224 11.3419 1.95741 11.3585 1.90188 11.3752C1.86235 11.3871 1.82248 11.3992 1.78586 11.4197C1.75898 11.4363 1.74646 11.4034 1.732 11.3653C1.71939 11.3322 1.70531 11.2951 1.67894 11.2836C1.56572 11.2217 1.43992 11.1598 1.30784 11.1598C1.25123 11.1598 1.16317 11.2093 1.13801 11.265C1.11153 11.3302 1.15938 11.3435 1.2055 11.3564C1.2251 11.3618 1.24439 11.3672 1.25752 11.3764C1.28541 11.3984 1.3034 11.4252 1.32467 11.4569C1.32738 11.4609 1.33015 11.4651 1.33299 11.4693C1.36444 11.5064 1.42105 11.5807 1.41476 11.5868C1.37139 11.6256 1.35274 11.5988 1.33401 11.5718C1.32286 11.5557 1.31169 11.5396 1.29526 11.5373C1.23152 11.534 1.1821 11.5026 1.13267 11.4711C1.08943 11.4436 1.04618 11.416 0.993343 11.4074C0.973343 11.4025 0.961293 11.3838 0.949689 11.3659C0.932093 11.3388 0.915525 11.3132 0.873833 11.3393C0.823515 11.3702 0.817227 11.4259 0.817227 11.494C0.817227 11.5992 0.735459 11.6797 0.628529 11.6425C0.527893 11.6054 0.433543 11.5992 0.339195 11.6178C0.251139 11.6364 0.207109 11.6178 0.219689 11.525C0.225977 11.4816 0.207109 11.4259 0.175659 11.4383C0.149724 11.4497 0.12247 11.448 0.0969165 11.4465C0.0666968 11.4446 0.0388623 11.4429 0.0184108 11.4631C-0.0193276 11.5002 0.00583138 11.5559 0.0498611 11.5807C0.117791 11.6252 0.0940138 11.6698 0.07024 11.7143C0.0687508 11.7171 0.0672616 11.7199 0.0657976 11.7227C0.0646617 11.7249 0.0635385 11.727 0.0624405 11.7292C0.0596167 11.7342 0.0567424 11.7392 0.0538618 11.7442C0.0246674 11.795 -0.00505379 11.8467 0.0121227 11.9087C0.100179 12.2181 0.112762 12.5337 0.0372816 12.8493C0.0355084 12.8589 0.033363 12.8684 0.0312648 12.8776C0.0184645 12.9341 0.00742787 12.9828 0.0938908 13.004C0.189857 13.0289 0.220929 13.1056 0.252246 13.183C0.259929 13.2019 0.267624 13.2209 0.276298 13.2392C0.297409 13.2894 0.309171 13.3449 0.320943 13.4005C0.351254 13.5436 0.381631 13.687 0.57192 13.7405C0.584499 13.7467 0.60337 13.7653 0.609661 13.7838C0.621171 13.8423 0.644383 13.8997 0.6677 13.9573C0.720829 14.0886 0.774488 14.2212 0.691429 14.3717C0.66434 14.4197 0.697916 14.431 0.739908 14.445C0.746666 14.4473 0.753642 14.4496 0.760618 14.4522C0.837947 14.4812 0.893717 14.5399 0.949386 14.5984C0.988806 14.6399 1.02818 14.6813 1.07511 14.7121H1.0814C1.04508 14.753 1.06654 14.8043 1.08841 14.8567C1.11956 14.9312 1.15154 15.0078 1.0185 15.0587C1.01221 15.0587 1.01221 15.1391 1.03108 15.1701C1.14267 15.3447 1.152 15.5355 1.16132 15.7261C1.16356 15.7719 1.1658 15.8177 1.16946 15.8632C1.18204 16.0241 1.30784 16.0984 1.44621 16.0798C1.4749 16.077 1.50817 16.0806 1.54259 16.0843C1.65909 16.097 1.78874 16.1111 1.79845 15.8818C1.80474 15.6218 1.81732 15.3434 2.05633 15.1391C2.14439 15.0649 2.21358 14.9535 2.2639 14.8483C2.28277 14.8111 2.28277 14.7616 2.28277 14.7121C2.28277 14.6564 2.28277 14.6069 2.30793 14.5636C2.33756 14.5085 2.38443 14.5213 2.4359 14.5353C2.48276 14.548 2.53343 14.5618 2.57839 14.5265C2.81112 14.3594 3.06271 14.3965 3.30173 14.5265C3.37788 14.5686 3.42882 14.5399 3.48181 14.51C3.49884 14.5004 3.51609 14.4907 3.53445 14.4831C3.60358 14.4534 3.58367 14.4207 3.56443 14.3891C3.55566 14.3747 3.54703 14.3605 3.54703 14.347C3.54703 14.3365 3.54556 14.3239 3.54404 14.3108C3.53928 14.2698 3.53403 14.2247 3.57219 14.2294C3.76718 14.248 3.76718 14.118 3.76718 13.9942C3.76874 13.9634 3.77342 13.9315 3.77812 13.8994C3.79229 13.8027 3.8066 13.705 3.73573 13.6353C3.6288 13.5363 3.6288 13.4558 3.69799 13.3506C3.72944 13.3073 3.72944 13.264 3.70428 13.2207C3.60364 13.0288 3.72944 12.9793 3.8741 12.9483C3.88686 12.9461 3.89962 12.9446 3.91214 12.9432C3.96753 12.937 4.01828 12.9312 4.04393 12.8555C4.11312 12.6513 4.35842 12.5151 4.5597 12.5585C4.64147 12.577 4.67921 12.6327 4.67921 12.7194C4.67921 12.7534 4.67607 12.7859 4.67292 12.8184C4.66977 12.8509 4.66663 12.8834 4.66663 12.9174C4.66663 13.004 4.72953 13.0288 4.77985 12.9607C4.78801 12.95 4.79599 12.9393 4.80388 12.9286C4.88712 12.8164 4.96026 12.7177 5.13837 12.8308C5.16015 12.8442 5.18899 12.8286 5.22133 12.8111C5.26373 12.7882 5.31213 12.762 5.35851 12.7936C5.47802 12.8803 5.61011 12.8617 5.73591 12.837C5.86392 12.8118 5.92354 12.8955 5.98354 12.9798C6.04146 13.0612 6.09973 13.143 6.22023 13.1278C6.23281 13.1278 6.25797 13.1773 6.27055 13.2083C6.27378 13.2178 6.27203 13.229 6.27042 13.2393C6.26889 13.249 6.26749 13.258 6.27055 13.264C6.30022 13.3265 6.34131 13.3828 6.38228 13.4388C6.46291 13.5491 6.54306 13.6588 6.53472 13.8148C6.53472 13.8148 6.57246 13.821 6.59133 13.821C6.63536 13.821 6.66052 13.8271 6.65423 13.889C6.64782 13.9395 6.66591 13.9851 6.68436 14.0317C6.70212 14.0765 6.72021 14.1221 6.71713 14.1737C6.71084 14.2418 6.78632 14.3037 6.87437 14.2418C6.94767 14.1841 7.00577 14.2048 7.07229 14.2286C7.0914 14.2354 7.1112 14.2424 7.13226 14.248C7.2 14.2655 7.23136 14.3089 7.26186 14.3511C7.28517 14.3833 7.30797 14.4149 7.34611 14.4336C7.36068 14.4396 7.37542 14.4455 7.3902 14.4513C7.52867 14.5063 7.67115 14.5629 7.71093 14.7307C7.71722 14.7493 7.71722 14.7678 7.71722 14.7864C7.72351 14.8978 7.84301 15.0587 7.89334 15.0339C8.0624 14.9456 8.09389 15.0231 8.13319 15.1199C8.14068 15.1383 8.14845 15.1575 8.15751 15.1763C8.18896 15.2443 8.30847 15.3062 8.36508 15.2567C8.37185 15.2507 8.3795 15.2444 8.38759 15.2376C8.45471 15.1819 8.55278 15.1004 8.44055 14.9844C8.41061 14.9501 8.39255 14.9079 8.3738 14.8641C8.36897 14.8528 8.36393 14.8411 8.35879 14.8297C8.34697 14.8065 8.34009 14.7856 8.33351 14.7657C8.33123 14.7588 8.329 14.7521 8.32661 14.7454C8.32486 14.7405 8.32303 14.7356 8.32105 14.7307C8.28331 14.5883 8.35878 14.5203 8.54748 14.5203C8.55238 14.5203 8.55725 14.5203 8.56205 14.5203C8.61882 14.5208 8.6665 14.5212 8.6607 14.4584C8.64983 14.3193 8.74231 14.3051 8.82852 14.2918C8.84204 14.2897 8.85548 14.2876 8.86826 14.2851C8.97519 14.2665 9.03809 14.2294 9.01293 14.1118C8.99406 14.0128 9.01922 13.9262 9.11986 13.889C9.21421 13.8519 9.30227 13.8705 9.37774 13.9385C9.44472 13.9994 9.52437 14.027 9.6063 14.0554C9.62439 14.0617 9.64259 14.068 9.66079 14.0747C9.91217 14.1646 10.1754 14.2112 10.4382 14.2577C10.6817 14.3008 10.9248 14.3439 11.1578 14.4213C11.1955 14.4336 11.2395 14.4398 11.2773 14.4213C11.4414 14.3513 11.596 14.403 11.7493 14.4543C11.759 14.4576 11.7687 14.4608 11.7784 14.464C11.7917 14.4684 11.8049 14.4728 11.8182 14.4769C11.8539 14.4887 11.8699 14.5211 11.8855 14.5527C11.9029 14.588 11.9198 14.6222 11.9629 14.6255C12.0761 14.6379 12.1264 14.675 12.1327 14.7307C12.139 14.774 12.1264 14.8297 12.1013 14.8978C12.0918 14.9257 12.0948 14.9571 12.0979 14.9894C12.1029 15.043 12.1083 15.099 12.0572 15.1453C12.0321 15.1639 12.0635 15.2196 12.1013 15.2196C12.2232 15.21 12.2733 15.2785 12.3277 15.3531C12.3435 15.3747 12.3597 15.3968 12.378 15.4176C12.3924 15.4336 12.4048 15.4541 12.4174 15.4751C12.4489 15.5275 12.4823 15.5829 12.5541 15.5785C12.6799 15.5785 12.6925 15.6219 12.6296 15.7209C12.5667 15.8261 12.5919 15.857 12.7302 15.8632C12.7947 15.8632 12.8449 15.8371 12.8947 15.8113C12.9324 15.7917 12.9699 15.7722 13.0133 15.7642C13.0448 15.759 13.0788 15.7586 13.1137 15.7583C13.2041 15.7573 13.3009 15.7562 13.3781 15.6714C13.4284 15.6157 13.5416 15.6714 13.5983 15.7147C13.6509 15.7562 13.5977 15.802 13.5605 15.8339C13.5533 15.8401 13.5467 15.8458 13.5416 15.8508C13.4913 15.9127 13.4725 15.9622 13.5102 16.0303C13.7807 16.5378 13.8687 17.0886 13.919 17.6517C13.9203 17.6593 13.9211 17.6673 13.9218 17.6755C13.9248 17.7075 13.928 17.7409 13.9631 17.7508C13.9995 17.7642 14.0162 17.7387 14.0321 17.7142C14.0382 17.7048 14.0442 17.6957 14.0511 17.6889C14.1706 17.5713 14.2587 17.5837 14.3279 17.7384C14.4474 18.0107 14.592 18.0788 14.8688 18.0045C14.938 17.9859 15.0198 17.9859 15.0701 18.054C15.1375 18.1424 15.1911 18.2395 15.2449 18.3369C15.3116 18.4577 15.3786 18.5791 15.4726 18.6852C15.4768 18.6894 15.4754 18.699 15.474 18.7086C15.4733 18.7134 15.4726 18.7183 15.4726 18.7224C15.4852 18.8585 15.6991 18.9637 15.8123 18.8833C15.8245 18.8747 15.8352 18.8638 15.8457 18.8531C15.8731 18.8252 15.8989 18.799 15.9444 18.8214C15.9839 18.843 15.9805 18.8766 15.977 18.9118C15.9755 18.927 15.9739 18.9426 15.9758 18.9575C15.9821 19.0751 16.0702 19.1556 16.1645 19.2113C16.2526 19.2608 16.3532 19.2608 16.4161 19.1432C16.4413 19.0937 16.4916 19.0999 16.5356 19.1246C16.5935 19.1641 16.6515 19.1508 16.7094 19.1374C16.7332 19.1319 16.7571 19.1264 16.7809 19.1246C16.8615 19.1167 16.9189 19.0681 16.9762 19.0195C17.0083 18.9923 17.0404 18.9652 17.0765 18.9452C17.1561 18.8982 17.247 18.867 17.3361 18.8365C17.4231 18.8067 17.5083 18.7775 17.5797 18.7347C17.813 18.5945 18.0107 18.6644 18.2074 18.734C18.2971 18.7657 18.3866 18.7974 18.4792 18.809C18.5245 18.814 18.5376 18.8506 18.5506 18.8872C18.5539 18.8964 18.5572 18.9056 18.561 18.9142C18.6427 19.1061 18.8188 19.1989 19.0201 19.1432C19.0612 19.1331 19.0897 19.1436 19.1194 19.1546C19.126 19.157 19.1327 19.1595 19.1396 19.1618C19.1664 19.1664 19.1933 19.1715 19.2202 19.1765C19.4084 19.2118 19.5996 19.2476 19.7812 19.1556C19.8881 19.0999 19.9636 19.007 19.8881 18.8709C19.7309 18.5862 19.7686 18.4686 19.9888 18.2458C20.0768 18.1592 20.1334 18.153 20.2341 18.1963C20.3576 18.2535 20.4896 18.286 20.6227 18.3187C20.7199 18.3426 20.8178 18.3666 20.9134 18.4006L20.9192 18.4026C21.0539 18.4508 21.1274 18.4771 21.1398 18.6357C21.1587 18.8957 21.5738 19.1741 21.8002 19.0504C22.0581 18.9142 22.2909 18.8709 22.5802 18.908C22.6726 18.9187 22.7439 18.9711 22.8134 19.022C22.9046 19.089 22.9926 19.1536 23.1211 19.1184C23.1274 19.1184 23.14 19.1494 23.1463 19.168C23.2092 19.3041 23.3287 19.3412 23.4733 19.335C23.5457 19.332 23.618 19.335 23.6903 19.3381C23.7627 19.3412 23.835 19.3443 23.9074 19.3412C23.9309 19.3412 23.9553 19.3432 23.9797 19.3451C24.0528 19.3509 24.1259 19.3567 24.1778 19.3103C24.3359 19.177 24.5192 19.1235 24.7052 19.0692C24.7265 19.0629 24.7478 19.0567 24.7691 19.0504C24.8445 19.0256 24.8886 18.9761 24.9074 18.9018C24.9892 18.6048 25.2597 18.4872 25.5364 18.6172C25.6056 18.6481 25.6811 18.6729 25.7566 18.6172C25.8698 18.5429 25.9767 18.5243 26.0962 18.6172C26.2094 18.7038 26.3856 18.6976 26.4673 18.6419C26.5757 18.5664 26.6614 18.4558 26.7476 18.3445C26.7815 18.3007 26.8155 18.2568 26.851 18.2149C26.8573 18.2025 26.8573 18.1901 26.851 18.1778C26.7465 18.075 26.7766 17.9625 26.806 17.852C26.8174 17.8095 26.8286 17.7673 26.8321 17.726C26.8341 17.7037 26.8358 17.6812 26.8375 17.6586C26.8464 17.5374 26.8556 17.4138 26.9139 17.299C27.0397 17.0576 26.9957 16.9277 26.7441 16.8163C26.7252 16.8101 26.7126 16.8039 26.7189 16.7791C26.7347 16.7461 26.7461 16.7101 26.7575 16.6743C26.7825 16.5959 26.8071 16.5184 26.8762 16.4759C27.0686 16.3589 27.2661 16.2621 27.4687 16.1627C27.4913 16.1516 27.5139 16.1405 27.5366 16.1293C27.5932 16.1046 27.6498 16.1046 27.719 16.1169C27.7483 16.1233 27.7801 16.1343 27.8127 16.1455C27.9061 16.1777 28.006 16.2121 28.0712 16.1479C28.1537 16.0718 28.194 16.0955 28.2474 16.127C28.2591 16.1339 28.2715 16.1412 28.2851 16.1479C28.4864 16.2469 28.6373 16.3892 28.7631 16.5749C28.8505 16.7011 28.9651 16.804 29.0802 16.9074C29.2303 17.0423 29.3813 17.1779 29.4739 17.3671C29.5179 17.4599 29.6248 17.5032 29.7318 17.4599C29.9708 17.3609 30.1909 17.398 30.4174 17.497C30.4488 17.5094 30.4866 17.5156 30.5243 17.5218C30.6438 17.5341 30.7822 17.6517 30.8011 17.7693C30.8136 17.8683 31.0401 18.0045 31.1093 17.9488C31.1635 17.9025 31.2282 17.8787 31.2926 17.8551C31.34 17.8377 31.3873 17.8203 31.43 17.7941C31.4406 17.7878 31.4517 17.782 31.4629 17.776C31.5184 17.7465 31.5768 17.7156 31.5873 17.6332C31.6072 17.4806 31.71 17.3824 31.8131 17.284C31.8732 17.2267 31.9333 17.1692 31.9773 17.1009C31.9961 17.0762 32.059 17.0019 32.0716 17.0886C32.0781 17.1373 32.1096 17.1817 32.1412 17.2261C32.2019 17.3116 32.2629 17.3975 32.1471 17.5156C32.1362 17.5263 32.1441 17.5554 32.1505 17.579C32.1515 17.5828 32.1525 17.5864 32.1534 17.5898C32.254 17.9302 32.3169 18.2706 32.3043 18.6295C32.298 18.7347 32.2855 18.7471 32.2037 18.7409C31.8892 18.71 31.7634 18.9328 31.6628 19.1556C31.6112 19.2773 31.678 19.3907 31.7418 19.4992C31.7559 19.5231 31.7698 19.5468 31.7823 19.5702C31.8263 19.6569 31.9018 19.7249 31.9773 19.793L31.9792 19.7946C32.0727 19.8744 32.1524 19.9423 32.0024 20.0529C31.9584 20.0839 31.9395 20.1767 32.015 20.1953C32.0474 20.2044 32.0755 20.2227 32.1031 20.2406C32.1506 20.2715 32.1966 20.3015 32.2603 20.2819C32.2792 20.2757 32.2918 20.251 32.2729 20.2324C32.1966 20.1537 32.2463 20.1122 32.2957 20.0709C32.3319 20.0408 32.3679 20.0107 32.3547 19.9663C32.3484 19.9539 32.3924 19.9168 32.405 19.9601C32.4427 20.0839 32.4679 20.0282 32.493 19.9601C32.496 19.9542 32.4983 19.9462 32.5007 19.938C32.5081 19.9118 32.5161 19.8838 32.5496 19.9168C32.6593 20.0199 32.7617 19.9632 32.8514 19.9135C32.88 19.8976 32.9074 19.8825 32.9333 19.8735C33.1849 19.7992 33.5057 19.1741 33.4868 18.8833C33.4692 18.6168 33.5176 18.3504 33.5652 18.089C33.5684 18.0711 33.5717 18.0533 33.5749 18.0354C33.5806 18.0016 33.5866 17.9677 33.5925 17.9338C33.6323 17.7076 33.6722 17.4801 33.6504 17.2433C33.6465 17.1956 33.6424 17.1478 33.6383 17.1C33.6086 16.7566 33.5786 16.4096 33.6504 16.0674C33.6755 15.9375 33.6063 15.8013 33.5497 15.6899C33.4428 15.4548 33.3107 15.232 33.1535 15.0216C33.0843 14.9287 33.034 14.8297 33.0025 14.7307C32.9544 14.5781 32.9335 14.4122 32.9129 14.248C32.9112 14.2341 32.9094 14.2201 32.9077 14.2063C32.9058 14.1912 32.9038 14.1763 32.9019 14.1613C32.9019 14.1489 32.8956 14.1056 32.8893 14.0871C32.8844 14.0775 32.8758 14.079 32.8692 14.0802C32.8673 14.0806 32.8655 14.0809 32.8641 14.0809C32.766 14.1042 32.7316 14.0362 32.6973 13.9684C32.6677 13.9101 32.6383 13.8519 32.5685 13.8519C32.6099 13.6833 32.4958 13.684 32.3879 13.6847C32.381 13.6848 32.3741 13.6848 32.3672 13.6848C32.2477 13.6786 32.1345 13.66 32.0276 13.5858C31.9647 13.5425 31.8577 13.5053 31.8074 13.5363C31.78 13.5556 31.7556 13.5779 31.7314 13.6C31.678 13.6488 31.6255 13.6968 31.5433 13.7096C31.5457 13.7169 31.5463 13.7242 31.5468 13.7311C31.5475 13.7418 31.5482 13.7516 31.5558 13.7591C31.6451 13.8588 31.6009 13.9406 31.5566 14.0226C31.5322 14.0678 31.5078 14.113 31.5055 14.1613C31.5055 14.1692 31.4877 14.1771 31.4699 14.185C31.4597 14.1895 31.4495 14.194 31.4426 14.1985C31.4403 14.1891 31.437 14.1798 31.4339 14.1708C31.4286 14.1559 31.4238 14.142 31.4238 14.1304C31.436 14.0733 31.3963 14.0425 31.3559 14.011C31.313 13.9777 31.2692 13.9436 31.2854 13.8766C31.2917 13.8643 31.2288 13.8705 31.2099 13.9014C31.1659 13.9571 31.147 14.0128 31.191 14.0809C31.1962 14.0894 31.2061 14.0974 31.2161 14.1055C31.2424 14.1268 31.2692 14.1485 31.2099 14.1799C31.1594 14.2025 31.1524 14.1723 31.145 14.1399C31.1423 14.1279 31.1395 14.1156 31.1344 14.1056C31.131 14.0998 31.1276 14.0938 31.1241 14.0878C31.0763 14.005 31.0219 13.9108 30.9457 13.8705C30.8972 13.8444 30.8579 13.8945 30.8193 13.9438C30.8028 13.9648 30.7865 13.9856 30.7696 14.0004C30.7004 14.0623 30.5998 14.0376 30.5306 14.0004C30.474 13.9695 30.5117 13.889 30.5432 13.8457C30.6057 13.7534 30.626 13.6498 30.6465 13.5453C30.6631 13.4606 30.6799 13.3753 30.7193 13.2949C30.7915 13.1416 30.7971 12.977 30.8027 12.812C30.8064 12.7039 30.8101 12.5957 30.8325 12.4904C30.8411 12.4483 30.8502 12.4064 30.8593 12.3648C30.9104 12.1308 30.9604 11.9018 30.9017 11.6549C30.8924 11.623 30.9104 11.5845 30.9281 11.5466C30.9344 11.533 30.9407 11.5195 30.9457 11.5064C30.9646 11.4507 30.9835 11.395 30.9772 11.3331C30.9394 10.9618 31.298 10.5595 31.6879 10.5286C31.7382 10.5224 31.7697 10.4791 31.7634 10.4543C31.7096 10.3004 31.8003 10.2773 31.8905 10.2543C31.9164 10.2478 31.9423 10.2412 31.9647 10.2315C31.9961 10.2191 32.0402 10.2006 32.0402 10.1758C32.059 10.0644 32.1156 10.0273 32.2351 10.0335C32.3169 10.0397 32.3295 9.96541 32.2729 9.89734C32.1785 9.78594 32.2351 9.66836 32.3735 9.62504C32.397 9.61733 32.4236 9.61385 32.4508 9.61029C32.5329 9.59954 32.6204 9.58809 32.644 9.45794C32.6503 9.40843 32.7698 9.43938 32.8201 9.46413C32.8605 9.48942 32.8409 9.49784 32.8175 9.50785C32.8009 9.51499 32.7824 9.52294 32.7824 9.5384C32.7849 9.55871 32.7738 9.58007 32.7631 9.60034C32.7479 9.62945 32.7338 9.6563 32.7635 9.67455C32.8075 9.70549 32.8893 9.73024 32.9459 9.68074C32.9504 9.6769 32.955 9.67312 32.9598 9.66934C32.9637 9.66623 32.9677 9.66312 32.9717 9.66C33.0179 9.62399 33.0676 9.58531 33.0465 9.50745C33.0453 9.50144 33.0434 9.49519 33.0415 9.48903C33.0336 9.46348 33.0261 9.43938 33.0717 9.43938C33.1894 9.44829 33.1898 9.38341 33.1902 9.31866C33.1903 9.29348 33.1905 9.26832 33.1975 9.24753C33.202 9.23413 33.1992 9.2159 33.1964 9.19777C33.1914 9.16567 33.1865 9.1339 33.2227 9.12994C33.3091 9.12608 33.344 9.07149 33.3795 9.01597C33.4008 8.98262 33.4223 8.94894 33.4554 8.92572C33.4604 8.9218 33.4661 8.91772 33.4722 8.91345C33.5044 8.8907 33.5448 8.86218 33.5183 8.82051C33.4868 8.76481 33.4114 8.74006 33.361 8.77719C33.1883 8.88744 33.1507 8.78627 33.1145 8.68884C33.1019 8.65502 33.0895 8.62164 33.0717 8.59772C33.0473 8.56405 33.0494 8.51542 33.0516 8.46637C33.0522 8.45235 33.0528 8.43818 33.0528 8.42444C33.0654 8.26353 33.0465 8.10881 32.9962 7.96029C32.9711 7.89221 32.9459 7.83032 32.9082 7.76844C32.8956 7.74987 32.8956 7.71893 32.8956 7.69417C32.8767 7.52708 33.078 7.23002 33.2478 7.16195C33.2981 7.14338 33.3422 7.10625 33.3044 7.03818C33.2918 7.01342 33.2793 6.98248 33.317 6.97629C33.3359 6.9701 33.3673 6.99486 33.3736 7.01342C33.3988 7.05674 33.4114 7.10624 33.4239 7.15575C33.4617 7.27333 33.5497 7.31667 33.6504 7.26716C33.6864 7.24745 33.6868 7.26791 33.6871 7.29016C33.6873 7.30284 33.6875 7.31611 33.6944 7.32285C33.6996 7.32799 33.7048 7.33392 33.7102 7.34004C33.7308 7.36345 33.7538 7.38965 33.7887 7.38474C33.8274 7.37714 33.8233 7.35556 33.8188 7.33143C33.8159 7.31625 33.8129 7.30006 33.8202 7.28572C33.8227 7.27953 33.8255 7.27359 33.8282 7.26765C33.8393 7.24389 33.8504 7.22012 33.8454 7.18051C33.8384 7.12076 33.82 7.06101 33.8016 7.00126C33.7532 6.84441 33.7048 6.68756 33.8642 6.5307C33.8894 6.50595 33.8831 6.41931 33.7762 6.39455C33.5875 6.35742 33.4805 6.12225 33.556 5.95516C33.5812 5.89946 33.6315 5.88708 33.6692 5.89327C33.7117 5.90163 33.6968 5.92411 33.6827 5.94545C33.6759 5.9557 33.6692 5.96569 33.6692 5.97373C33.6692 6.05418 33.6755 6.11606 33.7573 6.1532C33.8238 6.18163 33.861 6.2375 33.899 6.2944C33.9436 6.36133 33.9892 6.42968 34.0844 6.45644C34.1221 6.46882 34.2039 6.66067 34.1661 6.81538C34.122 7.02478 34.1829 7.22409 34.2442 7.42459C34.2789 7.53814 34.3138 7.65208 34.3297 7.76844C34.3337 7.80825 34.343 7.8455 34.3524 7.88349C34.3576 7.90455 34.3629 7.92584 34.3674 7.94791C34.3797 7.99456 34.3933 8.04109 34.407 8.08755C34.4909 8.37391 34.5741 8.65761 34.336 8.95047C34.3108 8.98142 34.336 9.01855 34.3926 9.03092C34.5372 9.05568 34.5687 9.14851 34.575 9.28466C34.5767 9.31321 34.5756 9.34313 34.5745 9.37343C34.5716 9.45477 34.5686 9.53883 34.619 9.60647C34.8895 9.95922 35.1788 10.2872 35.5814 10.5162C35.6619 10.5626 35.7433 10.6082 35.8247 10.654C36.0801 10.7974 36.3367 10.9414 36.5752 11.1103C36.6591 11.1678 36.7452 11.219 36.8309 11.27C36.8929 11.3069 36.9548 11.3437 37.0154 11.3826C37.0783 11.4445 37.0658 11.3702 37.0595 11.3331Z" fill="white"/>
<path d="M31.8578 0.744306C31.8515 0.818569 31.7445 0.781437 31.7005 0.756683C31.4992 0.632909 31.5118 0.255401 31.7257 0.137816C31.7382 0.13163 31.7508 0.12235 31.7638 0.11278C31.8027 0.0840609 31.8452 0.0527224 31.9018 0.0944957C31.9647 0.137816 31.9584 0.205892 31.9521 0.273967C31.9589 0.360551 31.9329 0.44176 31.9064 0.524342C31.8837 0.595224 31.8607 0.66713 31.8578 0.744306Z" fill="white"/>
<path d="M16.1897 1.17751C16.2274 1.128 16.1834 1.128 16.1519 1.128C16.0583 1.13678 16.069 1.08643 16.0786 1.04095C16.0826 1.02229 16.0864 1.00445 16.0827 0.991852C16.0639 0.917588 16.1205 0.917588 16.1834 0.929966C16.204 0.934013 16.2272 0.919528 16.2497 0.905558C16.2615 0.89817 16.2731 0.890926 16.284 0.886645C16.2708 0.883396 16.2559 0.881853 16.2401 0.880225C16.2258 0.878751 16.2109 0.877207 16.196 0.874268C16.1456 0.86189 16.0953 0.849513 16.089 0.781437C16.089 0.774153 16.0886 0.766393 16.0881 0.758483C16.086 0.726072 16.0839 0.691154 16.1142 0.67623C16.1412 0.664845 16.1658 0.681385 16.1895 0.69731C16.2045 0.707356 16.2191 0.717157 16.2337 0.719551C16.311 0.726464 16.3667 0.76812 16.4227 0.810024C16.467 0.843154 16.5115 0.876439 16.5671 0.892834C16.6237 0.905211 16.6425 0.967097 16.6111 1.0228C16.6237 1.128 16.6174 1.13419 16.4853 1.11563L16.4829 1.11535C16.4304 1.10927 16.4058 1.10642 16.3904 1.11678C16.3767 1.12593 16.3702 1.14536 16.358 1.18193L16.3553 1.18981L16.3532 1.19608C16.3343 1.25178 16.2777 1.24559 16.2337 1.23321C16.2271 1.23159 16.2162 1.23337 16.2049 1.2352C16.1732 1.24038 16.1386 1.24601 16.1897 1.17751Z" fill="white"/>
<path d="M16.7306 1.55502C16.7306 1.71945 16.8276 1.72022 16.9227 1.72098C16.9385 1.7211 16.9543 1.72123 16.9696 1.72211C16.9953 1.72464 17.0253 1.7189 17.0542 1.71334C17.0961 1.70529 17.136 1.69763 17.1583 1.71593C17.2439 1.78962 17.3315 1.7877 17.42 1.78576C17.4876 1.78428 17.5557 1.78279 17.6238 1.81494C17.7307 1.86445 17.7936 1.77781 17.8062 1.69736C17.8125 1.65404 17.7936 1.59834 17.7496 1.61691C17.6213 1.68901 17.5298 1.62985 17.4385 1.57086C17.4044 1.54884 17.3703 1.52684 17.3344 1.5117C17.3241 1.50831 17.3133 1.50585 17.3027 1.50343C17.2745 1.49701 17.2475 1.49086 17.2338 1.46838C17.2212 1.456 17.2338 1.43125 17.2527 1.43125C17.2826 1.42389 17.2759 1.38447 17.2692 1.34417C17.2588 1.28276 17.2482 1.21932 17.3659 1.26415C17.3848 1.27034 17.5546 1.11563 17.542 1.06612C17.542 1.06612 17.5168 1.0228 17.498 1.01042C17.4728 0.991852 17.4351 0.985663 17.4162 1.0228C17.4108 1.03337 17.41 1.04495 17.4094 1.05525C17.4076 1.0811 17.4064 1.09886 17.3344 1.0723C17.2763 1.05212 17.2163 1.07583 17.1534 1.10069C17.1007 1.12155 17.0459 1.1432 16.9885 1.14038C16.957 1.14038 16.9193 1.14657 16.8941 1.16513L16.8921 1.16664L16.8888 1.16903L16.8843 1.17216L16.8806 1.17473L16.8775 1.17684L16.8772 1.17706L16.8765 1.17751C16.8292 1.20993 16.7811 1.24295 16.8816 1.31985C16.8982 1.33352 16.9051 1.35687 16.9124 1.38187C16.9217 1.41344 16.9317 1.44766 16.9633 1.46838C16.9948 1.48695 16.9319 1.55502 16.8879 1.51789C16.8466 1.48471 16.8389 1.44495 16.8314 1.40645C16.8263 1.38031 16.8213 1.35475 16.8061 1.33223L16.8037 1.32809C16.8019 1.32499 16.8001 1.32178 16.7983 1.31851C16.7744 1.2761 16.7444 1.22272 16.6992 1.2394C16.6237 1.26415 16.6677 1.33842 16.6992 1.36317C16.7396 1.40792 16.7354 1.47263 16.7321 1.52202C16.7313 1.53411 16.7306 1.54528 16.7306 1.55502Z" fill="white"/>
<path d="M20.1327 3.30418C20.1448 3.30203 20.157 3.29986 20.1649 3.29403C20.1994 3.26854 20.1806 3.25763 20.1593 3.24529C20.1496 3.23965 20.1393 3.23372 20.1334 3.22596C20.0202 3.10219 19.995 2.92271 20.1712 2.76181C20.2101 2.72573 20.2432 2.68143 20.2769 2.6364C20.3356 2.55786 20.396 2.47707 20.4919 2.43381C20.4988 2.43045 20.507 2.42482 20.5154 2.41901C20.5382 2.4034 20.5628 2.3865 20.5674 2.40906C20.577 2.46059 20.6135 2.50148 20.6501 2.54248C20.7103 2.60979 20.7707 2.67737 20.7121 2.79275C20.6744 2.87321 20.6869 2.97841 20.8127 3.02792C21.0077 3.10837 21.058 3.21358 20.9763 3.40543L20.9737 3.41172C20.9495 3.47111 20.9274 3.52512 20.97 3.5849C20.973 3.59091 20.9753 3.59801 20.9777 3.60532C20.9852 3.62813 20.9932 3.65298 21.0266 3.65298C21.0706 3.64679 21.1084 3.62822 21.1146 3.5849C21.1272 3.51683 21.1461 3.46113 21.2216 3.41781C21.2719 3.38686 21.3285 3.38686 21.3348 3.424C21.3484 3.51754 21.4141 3.56299 21.4804 3.60881C21.5061 3.62665 21.532 3.64454 21.5549 3.66535C21.6556 3.75818 21.6367 3.90052 21.5235 3.97479C21.4562 4.01553 21.3804 4.03217 21.3044 4.04886C21.1957 4.07273 21.0866 4.09669 21.0014 4.19139C20.9574 4.2409 20.9008 4.16045 20.9134 4.09237C20.9197 4.05524 20.9448 4.01811 20.97 3.99335C21.0329 3.92528 21.0203 3.8572 20.9888 3.77675C20.9588 3.69794 20.9089 3.71322 20.8675 3.72586C20.8569 3.7291 20.8469 3.73217 20.8379 3.73343C20.6869 3.74581 20.385 3.55396 20.3536 3.43018C20.3347 3.33117 20.2781 3.34354 20.2089 3.37449C20.1775 3.38686 20.1208 3.39305 20.102 3.35592C20.0804 3.31345 20.1062 3.30887 20.1327 3.30418Z" fill="white"/>
<path d="M13.8073 5.64573C13.802 5.6368 13.7959 5.62648 13.7869 5.61478C13.7556 5.56594 13.7112 5.52563 13.666 5.48456C13.6023 5.42676 13.537 5.36742 13.5039 5.2806C13.4347 5.08875 13.3781 4.8969 13.4096 4.69886C13.4284 4.56271 13.4976 4.43894 13.6926 4.48845C13.7681 4.5132 13.8436 4.46988 13.8813 4.40799C13.9882 4.22852 14.1518 4.19139 14.3405 4.19758C14.3719 4.20377 14.4096 4.19139 14.4034 4.16664C14.3799 4.02334 14.4687 4.0147 14.5518 4.0066C14.58 4.00386 14.6075 4.00118 14.6298 3.99335C14.8122 3.92528 14.982 3.85101 15.0952 3.68392C15.1267 3.63441 15.1707 3.57871 15.2525 3.64679C15.2839 3.67154 15.372 3.65298 15.4223 3.63441C15.6425 3.55396 15.8689 3.55396 16.0953 3.57252C16.1079 3.57252 16.1268 3.57252 16.1331 3.57871C16.3532 3.78294 16.5922 3.73343 16.8438 3.65917C16.9445 3.62822 17.0828 3.63441 17.1206 3.77675C17.152 3.89433 17.0074 4.03667 16.8501 4.06143C16.7752 4.07371 16.6976 4.07787 16.6045 4.08285C16.5568 4.08541 16.5051 4.08818 16.4476 4.09237L16.4419 4.09125C16.2852 4.0604 16.0741 4.01885 15.8815 4.07999C15.7844 4.11182 15.6856 4.13856 15.5867 4.16533C15.3586 4.22705 15.1297 4.28901 14.9191 4.41418C14.7367 4.52558 14.5292 4.61841 14.3153 4.68029C14.2147 4.70505 14.1518 4.79169 14.114 4.85977C14.1096 4.86854 14.1051 4.87653 14.1009 4.88402C14.0933 4.89768 14.0866 4.90966 14.0826 4.92165C14.0729 4.94149 14.0629 4.96145 14.0528 4.98156C13.9905 5.10575 13.9253 5.23581 13.9253 5.37961C13.9253 5.43531 13.9316 5.4972 13.9568 5.5529C13.9819 5.62097 13.9882 5.65192 13.9002 5.67667C13.8561 5.68905 13.8373 5.68905 13.8247 5.67048C13.818 5.66395 13.8132 5.6557 13.8073 5.64573Z" fill="white"/>
<path d="M26.178 4.31516C26.2661 4.32754 26.3541 4.32135 26.3919 4.19758C26.417 4.11094 26.4988 3.98098 26.568 3.97479C26.7259 3.96508 26.7638 3.86397 26.8001 3.76706C26.8101 3.74043 26.8199 3.71412 26.8321 3.69011C26.9139 3.5292 26.7818 3.3683 26.612 3.38686C26.5642 3.39114 26.5179 3.4065 26.4712 3.42197C26.3829 3.45126 26.2935 3.48093 26.1906 3.43637C26.1403 3.41162 26.0711 3.46732 26.1214 3.54158C26.2064 3.66983 26.1586 3.65741 26.0748 3.63558C26.0656 3.6332 26.0558 3.63066 26.0459 3.62822C25.8446 3.57871 25.7754 3.6406 25.7754 3.84483C25.7692 4.04286 25.9767 4.29041 26.178 4.31516Z" fill="white"/>
<path d="M27.1162 3.47188C27.0869 3.47471 27.0574 3.47757 27.0271 3.4797C26.9411 3.48816 26.9227 3.43291 26.9036 3.37537C26.8948 3.34879 26.8858 3.32173 26.8699 3.30022C26.8636 3.30022 26.895 3.26928 26.9013 3.26928C27.0285 3.30446 27.1179 3.24583 27.2078 3.18694C27.2603 3.15259 27.3128 3.11815 27.3731 3.10219C27.3895 3.09816 27.4052 3.08561 27.4209 3.07307C27.4534 3.04708 27.4858 3.02115 27.524 3.07124C27.5618 3.12075 27.5806 3.17645 27.5555 3.25071C27.5052 3.38686 27.4297 3.46113 27.285 3.46113C27.2272 3.46113 27.1721 3.46646 27.1162 3.47188Z" fill="white"/>
<path d="M26.895 4.34611C26.8384 4.3523 26.7441 4.6803 26.7755 4.74218C26.7881 4.76694 26.8196 4.77931 26.8384 4.75456C26.9053 4.69566 26.9861 4.67167 27.0662 4.64785C27.1292 4.62912 27.1919 4.6105 27.2473 4.57509C27.2538 4.57125 27.2608 4.56794 27.2679 4.56462C27.295 4.55185 27.3228 4.53882 27.3228 4.49464C27.3197 4.49163 27.3163 4.48863 27.3128 4.48554C27.3018 4.47589 27.2898 4.46538 27.285 4.45131C27.1844 4.31516 27.0397 4.32754 26.895 4.34611Z" fill="white"/>
<path d="M35.3742 15.3123C35.507 15.3606 35.6409 15.4093 35.7512 15.5043C35.7734 15.5225 35.7847 15.5471 35.7966 15.5731C35.805 15.5913 35.8137 15.6102 35.8267 15.628C35.8284 15.6333 35.8305 15.6387 35.8325 15.6441C35.845 15.6771 35.8582 15.712 35.8204 15.7332C35.7795 15.7562 35.7548 15.7151 35.7364 15.6844C35.735 15.682 35.7337 15.6797 35.7323 15.6776C35.6416 15.5347 35.5391 15.598 35.4419 15.6581C35.4381 15.6605 35.4342 15.6628 35.4304 15.6652C35.3766 15.7005 35.3796 15.7078 35.434 15.8412C35.4369 15.8482 35.4398 15.8555 35.443 15.8632C35.4489 15.8778 35.4576 15.8931 35.4665 15.9086C35.4953 15.9591 35.5258 16.0125 35.4681 16.0551C35.4142 16.0948 35.3764 16.0557 35.3385 16.0165C35.3233 16.0009 35.3082 15.9852 35.292 15.9746C35.2119 15.9168 35.1771 15.8411 35.1377 15.7552C35.1307 15.7399 35.1235 15.7244 35.1159 15.7085C35.0755 15.6183 35.0281 15.5315 34.9807 15.4448C34.9176 15.3291 34.8544 15.2134 34.8077 15.0896C34.8067 15.0876 34.8057 15.0854 34.8046 15.0832C34.7992 15.0717 34.7931 15.0587 34.7825 15.0587C34.7647 15.0587 34.75 15.0525 34.7363 15.0466C34.7306 15.0443 34.7251 15.0419 34.7196 15.0401C34.7165 15.0401 34.7149 15.0386 34.7134 15.037C34.7118 15.0355 34.7102 15.0339 34.7071 15.0339C34.6976 15.0277 34.6898 15.0231 34.6819 15.0185C34.674 15.0138 34.6662 15.0092 34.6567 15.003L34.6505 14.9968C34.6379 14.9906 34.6253 14.9782 34.6127 14.9659L34.5624 14.9163C34.5498 14.904 34.5372 14.8916 34.5309 14.8792L34.5247 14.873C34.5209 14.8675 34.5172 14.8625 34.5136 14.8577C34.5051 14.8465 34.4976 14.8365 34.4932 14.8235C34.4869 14.8235 34.4869 14.8173 34.4869 14.8173C34.4743 14.8049 34.468 14.7926 34.4618 14.774V14.7678C34.4586 14.7585 34.4539 14.7492 34.4492 14.74C34.4445 14.7307 34.4397 14.7214 34.4366 14.7121C34.4323 14.7023 34.428 14.6921 34.4237 14.6818C34.4088 14.6467 34.3932 14.6095 34.3737 14.576C34.3223 14.4774 34.252 14.3901 34.1817 14.3029C34.0799 14.1765 33.9781 14.0501 33.9334 13.889C33.9083 13.8086 33.8076 13.7529 33.7133 13.7343C33.5686 13.7034 33.4743 13.6291 33.4176 13.5053C33.4176 13.4981 33.4112 13.4823 33.4058 13.4693C33.402 13.4601 33.3988 13.4522 33.3988 13.4496C33.3422 13.3011 33.2856 13.1588 33.1472 13.0536C33.0717 12.9979 33.0906 12.9236 33.1472 12.8493C33.2415 12.7256 33.2604 12.6204 33.0654 12.5708C33.0583 12.5685 33.0486 12.5669 33.0379 12.565C32.9916 12.5571 32.9274 12.5461 32.9836 12.4656C32.9912 12.4558 32.9982 12.4432 33.0054 12.4303C33.0344 12.3784 33.0666 12.3207 33.1472 12.4099C33.157 12.422 33.1726 12.4303 33.1886 12.4389C33.2138 12.4523 33.2401 12.4664 33.2478 12.4966C33.2837 12.6168 33.3792 12.6764 33.4756 12.7366C33.5479 12.7817 33.6207 12.8272 33.6692 12.8988C33.6766 12.9109 33.6917 12.9183 33.7077 12.9261C33.7326 12.9383 33.7598 12.9516 33.7636 12.9855C33.7814 13.2001 33.9283 13.3093 34.0751 13.4184C34.1358 13.4635 34.1964 13.5086 34.2479 13.561C34.394 13.7048 34.5623 13.8207 34.7311 13.937C34.8603 14.026 34.9897 14.1151 35.1096 14.217C35.1422 14.2459 35.1833 14.2532 35.2241 14.2604C35.2619 14.267 35.2995 14.2736 35.3298 14.2975C35.3486 14.3099 35.3801 14.3346 35.3738 14.3532C35.3688 14.3926 35.3439 14.385 35.3181 14.3771C35.3115 14.3751 35.3047 14.373 35.2983 14.3717L35.053 14.2975C34.9021 14.2603 34.7322 14.3903 34.7888 14.5326C34.8077 14.5883 34.8266 14.644 34.8454 14.7059V14.7121L34.8832 14.8235C34.8832 14.8235 34.8895 14.8297 34.8895 14.8359L34.9083 14.8916C34.9083 14.8916 34.9146 14.8978 34.9146 14.904C34.9209 14.9287 34.9272 14.9473 34.9398 14.972C34.9398 14.9751 34.9414 14.9767 34.9429 14.9782C34.9445 14.9798 34.9461 14.9813 34.9461 14.9844C34.9492 14.9937 34.9539 15.003 34.9587 15.0123C34.9634 15.0216 34.9681 15.0308 34.9712 15.0401C34.9712 15.0463 34.9712 15.0525 34.9775 15.0587C34.9838 15.068 34.9901 15.0788 34.9964 15.0896C35.0027 15.1005 35.009 15.1113 35.0153 15.1206C35.0602 15.1869 35.1252 15.2137 35.2013 15.2451C35.2104 15.2489 35.2197 15.2527 35.2291 15.2567C35.2765 15.2767 35.3253 15.2945 35.3742 15.3123Z" fill="white"/>
</svg>
